
<svg width="60" height="60" viewBox="0 0 60 60" fill="none" xmlns="http://www.w3.org/2000/svg">
<g clip-path="url(#clip0_1531_264)">
<path fill-rule="evenodd" clip-rule="evenodd" d="M28.4166 34.3082C25.4133 33.4254 22.2644 32.9833 19.9998 32.9833C14.1748 32.9833 2.49976 35.9083 2.49976 41.7333V47.9833H25.155C25.0526 47.1641 24.9998 46.3297 24.9998 45.4833C24.9998 41.3442 26.2603 37.4988 28.4166 34.3082ZM36.7698 27.254C34.2444 26.0471 32.4998 23.4689 32.4998 20.4833C32.4998 16.3411 35.8576 12.9833 39.9998 12.9833C44.1419 12.9833 47.4998 16.3411 47.4998 20.4833C47.4998 22.4082 46.7746 24.1637 45.5825 25.4916C45.389 25.4861 45.1947 25.4833 44.9998 25.4833C42.0682 25.4833 39.2815 26.1166 36.7698 27.254ZM19.9998 27.9833C15.8576 27.9833 12.4998 24.6254 12.4998 20.4833C12.4998 16.3411 15.8576 12.9833 19.9998 12.9833C24.1419 12.9833 27.4998 16.3411 27.4998 20.4833C27.4998 24.6254 24.1419 27.9833 19.9998 27.9833Z" fill="white" />
<path d="M44.8966 38.5025H42.605V43.0858H38.0216V45.3775H42.605V49.9608H44.8966V45.3775H49.48V43.0858H44.8966V38.5025ZM43.7508 32.7733C37.4258 32.7733 32.2925 37.9066 32.2925 44.2316C32.2925 50.5566 37.4258 55.69 43.7508 55.69C50.0758 55.69 55.2091 50.5566 55.2091 44.2316C55.2091 37.9066 50.0758 32.7733 43.7508 32.7733ZM43.7508 53.3983C38.6977 53.3983 34.5841 49.2848 34.5841 44.2316C34.5841 39.1785 38.6977 35.065 43.7508 35.065C48.8039 35.065 52.9175 39.1785 52.9175 44.2316C52.9175 49.2848 48.8039 53.3983 43.7508 53.3983Z" fill="yellow"/>
</g>
<defs>
<clipPath id="clip0_1531_264">
<rect width="60" height="60" fill="white"/>
</clipPath>
</defs>
</svg>
