
<svg width="60" height="60" viewBox="0 0 60 60" fill="none" xmlns="http://www.w3.org/2000/svg">
<g clip-path="url(#clip0_1528_1993)">
<rect width="60" height="60" rx="30" fill="#FFE55C"/>
<path d="M53.6158 33.3743C52.6126 33.3743 51.8001 32.5618 51.8001 31.5586C51.8001 29.3888 51.7139 28.5128 51.4324 26.8151C51.1419 25.0629 49.7665 23.7011 47.9236 23.3516C46.0715 22.9975 41.1192 22.8069 37.4015 22.8069C33.684 22.8069 28.7316 22.9975 26.8796 23.3516C25.0366 23.7056 23.6567 25.0629 23.3707 26.8151C23.0938 28.5128 23.003 29.3888 23.003 31.5586C23.003 32.5618 22.1905 33.3743 21.1873 33.3743C20.1841 33.3743 19.3716 32.5618 19.3716 31.5586C19.3716 29.1709 19.4805 28.0861 19.7847 26.225C20.3203 22.9521 22.8396 20.4237 26.1941 19.7837C28.718 19.298 34.6281 19.1709 37.397 19.1709C40.1659 19.1709 46.0761 19.298 48.5999 19.7837C51.9545 20.4283 54.4692 22.9567 55.0094 26.225C55.3135 28.0815 55.4225 29.1664 55.4225 31.5586C55.4225 32.5618 54.6099 33.3743 53.6068 33.3743H53.6158Z" fill="black"/>
<path d="M46.7888 59.5977C46.7888 56.0071 49.1129 52.9521 52.3313 51.84C49.7575 45.7621 47.2382 40.8869 47.2382 40.8869L29.1807 39.9972C29.1807 39.9972 20.6968 35.9255 15.2133 33.5151C12.3309 32.2486 11.0644 32.1624 10.3563 33.27C10.0976 33.674 10.1475 34.2868 10.2337 34.8315C10.3155 35.3671 10.152 35.4897 9.69811 35.6531C9.14886 35.8528 6.36627 36.6835 6.6931 39.0258C6.8429 40.088 7.84608 41.0957 9.32589 41.4543C11.7136 42.0308 13.4839 41.7857 14.4689 42.2759C15.4993 42.7934 22.3173 46.5474 27.3151 50.2197C27.3151 50.2197 27.4467 57.9227 29.0536 63.6331C32.0995 65.3126 35.5993 66.2659 39.3262 66.2659C42.5219 66.2659 45.5541 65.5577 48.2777 64.3004C47.3426 62.9658 46.7843 61.3453 46.7843 59.5977H46.7888Z" fill="url(#paint0_linear_1528_1993)"/>
<path d="M70.8246 54.214C70.3344 52.0124 66.6258 51.6901 65.8859 51.1409C63.9521 49.711 59.1359 46.5335 55.2957 44.0641C52.9262 42.5434 50.0483 40.3964 46.5894 40.3964L49.1768 51.0047C49.1768 51.0047 50.0528 51.4904 51.3919 52.2348C52.4814 51.6992 53.7024 51.3905 54.9961 51.3905C59.1723 51.3905 62.6176 54.5226 63.1305 58.5626C63.993 59.0029 64.6739 59.3297 65.0597 59.4841C66.2944 59.9788 67.3112 59.9516 67.5291 59.2117C67.7107 58.608 67.5291 57.7591 67.5291 57.7591C69.9985 57.2644 71.1514 55.7028 70.8201 54.2185L70.8246 54.214Z" fill="#698FFF"/>
<path d="M28.3323 40.6051L47.5019 40.7776C44.3789 43.6737 36.6258 50.2738 31.991 49.4749C27.2338 48.6533 28.3278 40.6051 28.3278 40.6051H28.3323Z" fill="#3C58DA"/>
<path d="M18.9427 35.8631C20.6346 35.8353 21.97 33.5999 21.9252 30.8702C21.8804 28.1405 20.4724 25.9501 18.7805 25.9778C17.0885 26.0056 15.7532 28.241 15.798 30.9707C15.8427 33.7004 17.2507 35.8908 18.9427 35.8631Z" fill="#43D88C"/>
<path d="M21.0215 37.0003C23.107 36.966 24.753 34.2113 24.6978 30.8474C24.6426 27.4835 22.9072 24.7842 20.8216 24.8184C18.7361 24.8526 17.0902 27.6074 17.1454 30.9713C17.2006 34.3352 18.936 37.0344 21.0215 37.0003Z" fill="black"/>
<path d="M53.6166 31.5586C53.6166 29.3025 53.5258 28.3357 53.2262 26.52C52.8086 23.9916 50.8612 22.0624 48.2647 21.5676C46.1631 21.1636 41.0019 20.9866 37.4022 20.9866C33.8027 20.9866 28.637 21.1636 26.5399 21.5676C23.9479 22.0624 21.996 23.9961 21.5784 26.52C21.2788 28.3357 21.188 29.298 21.188 31.5586C21.188 33.8146 21.2788 34.7815 21.5784 36.5972C21.996 39.1256 23.9434 41.0548 26.5399 41.5495C28.6415 41.9535 33.8027 42.1306 37.4022 42.1306C41.0019 42.1306 46.1676 41.9535 48.2647 41.5495C50.8567 41.0548 52.8086 39.121 53.2262 36.5972C53.5258 34.7815 53.6166 33.8191 53.6166 31.5586Z" fill="#698FFF"/>
<path d="M46.4849 31.0142C47.2974 31.0142 47.9556 30.2155 47.9556 29.2302C47.9556 28.245 47.2974 27.4463 46.4849 27.4463C45.6728 27.4463 45.0142 28.245 45.0142 29.2302C45.0142 30.2155 45.6728 31.0142 46.4849 31.0142Z" fill="black"/>
<path d="M24.5557 31.0142C25.3679 31.0142 26.0264 30.2155 26.0264 29.2302C26.0264 28.245 25.3679 27.4463 24.5557 27.4463C23.7434 27.4463 23.085 28.245 23.085 29.2302C23.085 30.2155 23.7434 31.0142 24.5557 31.0142Z" fill="black"/>
<path d="M40.4426 39.5841C39.6301 39.8156 38.7994 39.6431 38.1957 39.3072C37.601 38.9758 37.2197 38.4856 37.2833 38.0543C37.3831 37.3326 40.9828 36.0888 41.7772 36.343C42.0813 36.4429 42.2492 36.7516 42.2765 37.1465C42.3355 37.9863 41.7635 39.2028 40.4426 39.5795V39.5841Z" fill="black"/>
<path d="M40.4427 39.5838C39.6302 39.8153 38.7995 39.6428 38.1958 39.3069C38.6951 38.7168 39.4623 38.1449 40.4019 37.7182C41.0465 37.4231 41.6865 37.237 42.2766 37.1462C42.3356 37.986 41.7637 39.2025 40.4427 39.5793V39.5838Z" fill="#FF78B8"/>
<path d="M29.9345 25.4169H40.5519C42.1315 25.4169 43.4116 26.6969 43.4116 28.2766V31.6175C43.4116 33.6602 41.7548 35.3171 39.7121 35.3171H31.6912C29.1401 35.3171 27.0747 33.2471 27.0747 30.7006V28.2766C27.0747 26.6969 28.3548 25.4169 29.9345 25.4169Z" fill="#B8CDFF"/>
<path d="M31.5554 33.9052C32.5481 33.9052 33.3529 33.5293 33.3529 33.0655C33.3529 32.6017 32.5481 32.2257 31.5554 32.2257C30.5626 32.2257 29.7578 32.6017 29.7578 33.0655C29.7578 33.5293 30.5626 33.9052 31.5554 33.9052Z" fill="#698FFF"/>
<path d="M36.9294 33.9052C37.9221 33.9052 38.727 33.5293 38.727 33.0655C38.727 32.6017 37.9221 32.2257 36.9294 32.2257C35.9367 32.2257 35.1318 32.6017 35.1318 33.0655C35.1318 33.5293 35.9367 33.9052 36.9294 33.9052Z" fill="#698FFF"/>
<path d="M52.8536 36.9968C50.7156 36.9423 49.0542 34.1053 49.1404 30.6554C49.2267 27.2056 51.0288 24.4547 53.1668 24.5092L55.096 24.5592L54.7828 37.0467L52.8536 36.9968Z" fill="black"/>
<path d="M58.8045 30.8946C58.8907 27.4461 57.2276 24.6072 55.0895 24.5539C52.952 24.5005 51.149 27.2528 51.0627 30.7014C50.977 34.1499 52.6402 36.9887 54.7777 37.0421C56.9157 37.0955 58.7183 34.3432 58.8045 30.8946Z" fill="black"/>
<path d="M59.1784 30.907C59.2551 27.8494 57.7808 25.3324 55.8861 25.2851C53.9914 25.2378 52.3935 27.6781 52.3173 30.7357C52.241 33.7932 53.7149 36.3102 55.6096 36.3575C57.5043 36.4048 59.1022 33.9645 59.1784 30.907Z" fill="#43D88C"/>
<path d="M56.3713 34.4183C55.9082 34.3638 55.4906 33.9825 55.191 33.3334C54.8869 32.6707 54.7326 31.8037 54.7643 30.8822C54.8279 28.9121 55.6767 27.3824 56.7026 27.4006C57.724 27.4187 58.4775 28.9757 58.4139 30.9457C58.3504 32.9158 57.5015 34.441 56.4757 34.4274C56.4393 34.4274 56.4076 34.4274 56.3713 34.4183ZM56.7616 27.7592C56.7389 27.7592 56.7162 27.7546 56.689 27.7546C55.8765 27.741 55.1411 29.1754 55.0866 30.8913C55.0594 31.7537 55.2001 32.5663 55.4815 33.1745C55.7494 33.751 56.1034 34.0688 56.4847 34.0778C57.2973 34.0915 58.0326 32.657 58.0871 30.9412C58.1416 29.2753 57.5378 27.8545 56.7616 27.7592Z" fill="#107C10"/>
<path d="M56.4944 34.6452H56.4717C56.4309 34.6452 56.3855 34.6452 56.3446 34.6361C55.8045 34.568 55.3233 34.1413 54.9919 33.4241C54.6742 32.7342 54.5153 31.8263 54.5426 30.8731C54.6106 28.7487 55.5503 27.1599 56.7032 27.1826C57.0619 27.1917 57.4068 27.3551 57.7019 27.6638C58.3283 28.322 58.6778 29.5521 58.6324 30.9502C58.5644 33.061 57.6474 34.6407 56.4944 34.6407V34.6452ZM56.6806 27.9724C56.0768 27.9724 55.3642 29.2162 55.3097 30.8958C55.2825 31.7264 55.4141 32.5027 55.6865 33.0837C55.9134 33.5694 56.2085 33.8554 56.4944 33.8599H56.5035C57.1072 33.8599 57.8199 32.6161 57.8744 30.9366C57.9289 29.2798 57.3161 28.0496 56.7396 27.977C56.7396 27.977 56.7033 27.977 56.6851 27.977L56.6806 27.9724Z" fill="#107C10"/>
<path d="M44.2149 44.4825H36.3801C36.0034 44.4825 35.6992 44.1783 35.6992 43.8016C35.6992 43.4248 36.0034 43.1207 36.3801 43.1207H44.2149C47.0883 43.1207 49.7574 41.4548 51.0193 38.8719L52.3856 36.0712C52.5491 35.7353 52.9576 35.5945 53.298 35.758C53.6339 35.9214 53.7747 36.3299 53.6113 36.6704L52.2449 39.4711C50.756 42.517 47.6058 44.4825 44.2149 44.4825Z" fill="black"/>
<path d="M38.3594 40.8502H35.2454C34.2426 40.8502 33.4297 41.6632 33.4297 42.6659C33.4297 43.6687 34.2426 44.4816 35.2454 44.4816H38.3594C39.3621 44.4816 40.1751 43.6687 40.1751 42.6659C40.1751 41.6632 39.3621 40.8502 38.3594 40.8502Z" fill="black"/>
<path d="M42.4677 17.2508C42.4677 17.2508 42.9625 17.042 43.6706 16.6471C44.17 16.3702 44.7918 15.9798 45.3592 15.5758C47.4065 14.1006 47.8468 11.2181 44.7964 10.5327C44.7964 10.5327 41.8685 8.76691 38.5367 12.9203C37.5925 14.096 36.9343 13.9553 36.1763 13.9735L40.3433 17.1963L42.4677 17.2508Z" fill="#57F287"/>
<path d="M39.0087 16.8333C38.6682 16.8333 38.3777 16.5791 38.3323 16.2387C38.2869 15.8664 38.5457 15.5305 38.9179 15.4806C38.995 15.467 42.8943 14.7543 45.4 6.66075C45.5135 6.30214 45.8948 6.10242 46.2534 6.21136C46.612 6.3203 46.8117 6.7016 46.7028 7.06475C43.902 16.1343 39.2946 16.8106 39.0994 16.8333C39.0722 16.8333 39.0404 16.8378 39.0132 16.8378L39.0087 16.8333Z" fill="#038E3C"/>
<path d="M43.6705 16.647C43.8112 16.5653 41.6051 17.8408 38.2324 14.4863C37.7694 14.0233 37.025 13.2652 36.7662 13.011C35.4316 11.7037 32.3358 8.90297 29.3263 10.6733C29.3263 10.6733 26.7207 12.43 28.9223 15.1854C29.4761 15.8799 30.1887 16.4291 30.9831 16.8195C33.0712 17.8454 38.2279 19.7201 43.6705 16.647Z" fill="#29CC7A"/>
<path d="M29.6079 10.5236C29.5126 10.569 29.4172 10.6234 29.3219 10.6779C29.3219 10.6779 28.8998 10.9639 28.5366 11.4859C28.9043 12.3302 29.4899 13.4196 30.4068 14.5091C31.5462 15.8618 33.3619 17.3824 36.1174 18.2812C37.6789 18.4219 39.4492 18.313 41.2967 17.7002C33.1304 17.6684 30.3932 12.6389 29.6034 10.5236H29.6079Z" fill="#038E3C"/>
<path d="M47.8649 51.6678L50.2435 52.9207C50.6793 52.6075 51.1468 52.3397 51.6416 52.1172L48.5004 50.4648C48.169 50.2878 47.756 50.4194 47.5789 50.7508C47.4019 51.0821 47.5335 51.4954 47.8649 51.6724V51.6678Z" fill="#3C58DA"/>
</g>
<defs>
<linearGradient id="paint0_linear_1528_1993" x1="21.5593" y1="29.062" x2="45.7675" y2="78.2904" gradientUnits="userSpaceOnUse">
<stop offset="0.06" stop-color="#4E75E4"/>
<stop offset="0.47" stop-color="#698FFF"/>
<stop offset="0.65" stop-color="#648AFA"/>
<stop offset="0.86" stop-color="#567DEC"/>
<stop offset="1" stop-color="#4970DF"/>
</linearGradient>
<clipPath id="clip0_1528_1993">
<rect width="60" height="60" rx="30" fill="white"/>
</clipPath>
</defs>
</svg>
