
<svg width="60" height="60" viewBox="0 0 60 60" fill="none" xmlns="http://www.w3.org/2000/svg">
<g clip-path="url(#clip0_1528_12454)">
<rect width="60" height="60" rx="30" fill="#4553EB"/>
<path d="M22.1123 47.1568L23.7293 41.0792H32.4834L34.6022 46.0418C34.6395 46.9337 33.7435 48.9745 29.8628 50.0006C25.982 51.0265 23.0788 48.5323 22.1123 47.1568Z" fill="url(#paint0_linear_1528_12454)"/>
<path d="M40.1222 17.8838C38.5052 16.8244 35.9403 18.9432 35.7173 21.8427C35.8103 23.7198 36.6317 27.3737 39.1743 26.9724C42.3526 26.4706 41.7392 18.9432 40.1222 17.8838Z" fill="url(#paint1_linear_1528_12454)"/>
<path fill-rule="evenodd" clip-rule="evenodd" d="M39.1321 25.188C39.1094 24.8811 39.3399 24.6137 39.6471 24.591C40.5788 24.5221 41.6649 24.7829 42.6967 25.2242C43.7364 25.6687 44.7705 26.3174 45.6044 27.0786C46.4307 27.8327 47.1057 28.7394 47.3458 29.7112C47.5964 30.7259 47.3563 31.757 46.4589 32.636C45.7034 33.376 44.8207 33.5402 43.949 33.2962C43.1244 33.0652 42.3361 32.48 41.6388 31.7888C40.276 30.4378 39.0728 28.4918 38.3984 27.1265L39.5659 26.9626C40.2271 28.2276 41.2803 29.8631 42.4239 30.9967C43.0689 31.6363 43.6942 32.0669 44.2496 32.2222C44.7582 32.3645 45.2229 32.2856 45.6786 31.8393C46.295 31.2356 46.4189 30.6088 46.2631 29.9786C46.0969 29.3053 45.5949 28.5798 44.8526 27.9021C44.118 27.2316 43.1917 26.6486 42.2584 26.2496C41.3169 25.8469 40.4174 25.6521 39.7292 25.703C39.4223 25.7258 39.1549 25.4952 39.1321 25.188Z" fill="white"/>
<path d="M13.4151 20.2814C15.3531 20.1522 16.5115 21.2626 17.102 22.3085C16.7248 20.8841 16.4142 18.3004 16.7048 15.263C17.3182 8.85077 21.3328 4.94767 25.7377 3.94403C30.1426 2.94036 38.1719 3.1634 39.2871 10.0775C40.1793 15.6087 37.2426 17.3633 35.6627 17.5492C36.6106 26.9167 40.458 25.8572 42.7441 30.8198C45.0302 35.7822 41.4616 38.6818 38.7853 40.5775C36.1088 42.4733 29.6965 45.9303 24.4553 42.6406C20.2621 40.0087 18.0988 34.7043 17.541 32.3809C14.1956 34.2209 11.352 32.4368 10.4039 29.1469C9.45604 25.8572 10.0695 20.5044 13.4151 20.2814Z" fill="url(#paint2_radial_1528_12454)"/>
<path d="M31.5894 28.7969C29.8653 27.6346 27.1356 26.1886 24.7922 28.3824C21.4997 31.4647 21.1094 37.9011 30.0308 39.1278C37.0006 40.0863 40.0447 30.2943 37.0006 29.2114C35.0305 28.5106 33.3132 29.9592 31.5894 28.7969Z" fill="#911F5E"/>
<path fill-rule="evenodd" clip-rule="evenodd" d="M27.3263 38.5154C29.5721 38.2071 31.4997 36.5474 32.0381 34.2069C32.3382 32.9012 32.157 31.597 31.6104 30.4807C31.4524 30.412 31.2928 30.3249 31.1314 30.2163C29.4939 29.1124 26.6424 27.4242 24.539 28.6331C21.8452 31.4283 21.4187 36.5335 27.3263 38.5154Z" fill="black"/>
<path fill-rule="evenodd" clip-rule="evenodd" d="M36.0002 29.0161C35.9389 29.7812 35.6897 30.7588 35.0321 31.5639C34.772 31.8822 34.3696 32.0332 33.9585 32.0312C31.5642 32.0193 27.2659 31.4212 24.0806 29.1582C24.2984 28.8822 24.5369 28.6221 24.7929 28.3825C27.1363 26.1886 29.866 27.6349 31.5901 28.7969C32.5282 29.4295 33.4645 29.2887 34.4405 29.1421C34.9476 29.0659 35.4657 28.9879 36.0002 29.0161Z" fill="white"/>
<path fill-rule="evenodd" clip-rule="evenodd" d="M33.4837 38.6787C33.2447 38.2154 32.8984 37.5842 32.4653 36.8826C30.7712 34.5546 29.3084 34.8306 28.7889 35.2597C27.6925 33.6597 24.6704 33.5022 23.291 35.5457C24.2507 37.2261 26.347 38.621 30.0312 39.1278C31.321 39.3051 32.4764 39.1144 33.4837 38.6787Z" fill="#EB459F"/>
<path d="M27.8159 32.6674C28.197 33.2363 29.0225 35.0579 29.2765 37.7944" stroke="black" stroke-width="0.458642" stroke-linecap="round"/>
<g style="mix-blend-mode:multiply" opacity="0.75">
<g style="mix-blend-mode:multiply">
<path fill-rule="evenodd" clip-rule="evenodd" d="M35.6697 17.6208C35.6856 17.7745 35.7025 17.9253 35.7197 18.0734C34.6616 18.2465 33.6316 18.3006 32.6665 18.2372C30.2712 18.0798 28.2363 17.1933 27.1968 15.5561C25.6194 13.0714 26.0032 10.7416 27.2466 9.19801C28.4764 7.67156 30.5561 6.91247 32.3404 7.57846C34.077 8.22671 35.0629 9.41507 35.3707 10.6701C35.6774 11.9202 35.3052 13.2208 34.3601 14.0623C33.3895 14.9263 31.9839 14.8379 31.0593 14.235C30.5923 13.9305 30.228 13.4831 30.1053 12.9355C29.9813 12.3828 30.1114 11.763 30.5677 11.1355C30.6416 11.0339 30.7837 11.0115 30.8853 11.0853C30.987 11.1592 31.0092 11.3014 30.9354 11.4029C30.5413 11.9448 30.4586 12.4331 30.5491 12.836C30.6405 13.2439 30.9174 13.5995 31.3075 13.8541C32.0976 14.3691 33.271 14.4229 34.0577 13.7227C34.8694 13 35.1982 11.8752 34.9292 10.7785C34.6611 9.68667 33.7944 8.60661 32.1813 8.00447C30.6159 7.42008 28.7329 8.07797 27.6009 9.48328C26.4825 10.8715 26.1053 12.9882 27.5808 15.3123C28.5123 16.7794 30.3783 17.6312 32.6965 17.7835C33.6325 17.845 34.6359 17.7916 35.6697 17.6208Z" fill="#FFC619"/>
</g>
</g>
<path d="M20.5018 28.795C21.0349 29.1479 21.908 28.7677 22.4519 27.946C22.9957 27.1242 23.0044 26.172 22.4712 25.8191C21.9381 25.4663 21.065 25.8464 20.5211 26.6682C19.9773 27.4899 19.9686 28.4422 20.5018 28.795Z" fill="#FFC619"/>
<path d="M37.273 25.2668C37.5436 24.7867 37.1629 24.0594 36.4228 23.6424C35.6827 23.2254 34.8635 23.2766 34.5929 23.7567C34.3223 24.2369 34.703 24.9642 35.4431 25.3812C36.1832 25.7982 37.0025 25.747 37.273 25.2668Z" fill="#FFC619"/>
<path fill-rule="evenodd" clip-rule="evenodd" d="M15.9392 33.0035C15.598 33.0801 15.2653 33.1183 14.9432 33.1206C15.6744 32.8139 16.2678 32.0831 16.5849 31.0341C17.0103 29.626 16.9164 27.6848 15.9688 25.6101C15.4945 24.572 14.9989 24.1175 14.5857 23.992C14.1938 23.8728 13.7982 24.03 13.451 24.4303C13.1027 24.8316 12.8339 25.4498 12.7305 26.1444C12.6275 26.8367 12.692 27.5852 12.9869 28.2443C13.4169 29.2054 13.9018 29.3886 14.2049 29.3288C14.5344 29.2641 14.8568 28.8844 14.904 28.3182C14.9777 27.4347 14.3463 26.8004 14.0182 26.5973C13.9114 26.5312 13.8784 26.3911 13.9446 26.2842C14.0105 26.1774 14.1508 26.1444 14.2574 26.2106C14.661 26.4602 15.4506 27.2333 15.3572 28.356C15.2999 29.0442 14.8909 29.6572 14.2929 29.7752C13.6686 29.8982 13.0301 29.4544 12.5718 28.4301C12.2355 27.6784 12.1673 26.8397 12.2807 26.0773C12.3937 25.317 12.6907 24.6127 13.1074 24.1323C13.5251 23.6509 14.0946 23.3674 14.7178 23.5568C15.3201 23.7398 15.8901 24.3435 16.3824 25.4212C17.368 27.5788 17.4828 29.6347 17.0201 31.1655C16.793 31.9171 16.4212 32.5524 15.9392 33.0035Z" fill="#FFC619"/>
<path d="M26.574 21.1733C26.1279 21.5357 25.3055 20.6436 24.5807 21.02C23.8927 21.3771 23.7442 22.1351 23.4236 22.8181C22.7168 24.324 21.0538 24.2958 21.0538 23.8219C21.0538 23.3479 21.5836 23.8219 22.1411 22.9855C20.8028 23.1249 20.7194 21.9818 21.0538 22.0654C21.3883 22.1491 22.8659 22.7904 23.1449 21.7866C23.4236 20.783 24.5388 19.8351 25.6538 19.8351C26.769 19.8351 27.02 20.8109 26.574 21.1733Z" fill="black"/>
<path d="M30.973 21.0692C31.5373 21.1775 31.8401 20.0026 32.6568 19.9914C33.4319 19.9808 33.9212 20.5785 34.5267 21.0287C35.8615 22.0212 37.3134 21.2099 37.0893 20.7924C36.8651 20.3748 36.6225 21.0429 35.7358 20.5696C36.9808 20.0596 36.514 19.0129 36.2587 19.2448C36.0034 19.4767 35.0048 20.7404 34.2845 19.9879C33.5642 19.2354 32.1334 18.9276 31.1508 19.455C30.1681 19.9824 30.4084 20.9608 30.973 21.0692Z" fill="black"/>
<path fill-rule="evenodd" clip-rule="evenodd" d="M13.9318 31.0789C14.1274 30.8409 14.4786 30.8068 14.7167 31.0023C15.4383 31.5957 16.044 32.5343 16.4858 33.5658C16.9312 34.6051 17.2315 35.7883 17.3093 36.9146C17.3864 38.0307 17.2488 39.1528 16.7518 40.0215C16.2325 40.9287 15.3472 41.5087 14.091 41.5253C13.0335 41.5392 12.2816 41.0485 11.8194 40.2703C11.3822 39.5338 11.216 38.5664 11.1887 37.5847C11.1353 35.6666 11.6082 33.428 12.0629 31.9747L13.0208 32.662C12.6256 34.0337 12.2587 35.944 12.3035 37.5537C12.3285 38.4618 12.4838 39.2048 12.7782 39.7007C13.0479 40.1548 13.4387 40.4185 14.0764 40.4101C14.939 40.3987 15.4615 40.0311 15.7839 39.4674C16.1284 38.8656 16.2662 37.9944 16.1968 36.9915C16.1284 35.999 15.8605 34.9379 15.4608 34.0048C15.0577 33.0638 14.5412 32.3019 14.0082 31.8635C13.7704 31.668 13.7361 31.3167 13.9318 31.0789Z" fill="white"/>
<path fill-rule="evenodd" clip-rule="evenodd" d="M54.9027 90.4737H16.4801V75.3712C16.0366 74.4285 14.6671 70.9135 12.7378 64.3934C10.3261 56.2432 13.6658 53.998 18.6558 51.5031H29.7033L37.8533 46.4302C44.5616 48.9806 58.4446 55.0791 60.3073 59.0711C62.636 64.0608 63.5507 82.523 60.3073 82.0242C57.7127 81.625 52.9613 72.9316 50.9098 68.6349L54.9027 90.4737Z" fill="url(#paint3_linear_1528_12454)"/>
<path d="M17.0952 49.6105C17.2625 47.3244 19.4927 44.9407 22.9497 44.202C22.448 46.3765 24.3437 50.3913 30.0869 49.6105C34.6814 48.986 34.399 45.6608 33.767 44.1181C34.6591 44.1181 38.2555 44.0486 39.5938 47.5613C40.932 51.0743 37.0569 55.2423 33.9343 55.3537C31.4363 55.443 30.4772 53.6439 30.3099 52.7331C30.3843 53.8297 29.6408 56.1679 26.0723 56.7476C21.6117 57.4725 16.9278 51.8967 17.0952 49.6105Z" fill="url(#paint4_linear_1528_12454)"/>
<path fill-rule="evenodd" clip-rule="evenodd" d="M35.7237 90.4736H26.3063C22.9707 87.6207 18.7006 81.5431 13.65 69.065C11.1693 59.8416 11.7684 56.5817 12.3779 56.1047L21.1241 53.0037C21.0977 54.4613 21.5058 58.2832 23.3504 61.909L29.3055 72.1366C29.1199 70.9971 29.0267 68.0105 29.0267 68.0105L45.2524 75.4823C45.2524 75.4823 39.1723 86.0439 35.7237 90.4736Z" fill="url(#paint5_linear_1528_12454)"/>
<path d="M59.1494 69.0535C63.2333 66.3308 65.7643 62.9541 64.8024 61.5113C63.8405 60.0685 59.7501 61.106 55.6661 63.8286C51.5822 66.5512 49.0512 69.9279 50.0131 71.3707C50.975 72.8136 55.0654 71.7761 59.1494 69.0535Z" fill="black"/>
<path d="M28.2737 4.45992C27.744 4.54348 25.012 4.54348 22.7259 6.55079C22.2164 6.95831 22.3355 8.02844 23.618 7.05267C24.9004 6.07687 27.0751 5.51929 28.2737 5.43567C29.4726 5.35202 28.9667 4.35065 28.2737 4.45992Z" fill="#FFF2A8"/>
<path d="M30.2396 5.31586C30.586 5.31586 30.8669 5.12239 30.8669 4.88373C30.8669 4.64507 30.586 4.4516 30.2396 4.4516C29.8932 4.4516 29.6123 4.64507 29.6123 4.88373C29.6123 5.12239 29.8932 5.31586 30.2396 5.31586Z" fill="#FFF2A8"/>
</g>
<defs>
<linearGradient id="paint0_linear_1528_12454" x1="28.3579" y1="42.3617" x2="28.7476" y2="49.3872" gradientUnits="userSpaceOnUse">
<stop offset="0.28758" stop-color="#FFC619"/>
<stop offset="1" stop-color="#FFE75C"/>
</linearGradient>
<linearGradient id="paint1_linear_1528_12454" x1="34.5464" y1="25.1324" x2="39.1186" y2="19.6122" gradientUnits="userSpaceOnUse">
<stop offset="0.28758" stop-color="#FFC619"/>
<stop offset="1" stop-color="#FFE75C"/>
</linearGradient>
<radialGradient id="paint2_radial_1528_12454" cx="0" cy="0" r="1" gradientUnits="userSpaceOnUse" gradientTransform="translate(30.1983 12.5866) rotate(95.8639) scale(20.7393 21.7783)">
<stop stop-color="#FFC619"/>
<stop offset="0.436214" stop-color="#FFE75C"/>
</radialGradient>
<linearGradient id="paint3_linear_1528_12454" x1="23.8412" y1="60.539" x2="30.3094" y2="70.5754" gradientUnits="userSpaceOnUse">
<stop stop-color="#57F287"/>
<stop offset="1" stop-color="#29CC7A"/>
</linearGradient>
<linearGradient id="paint4_linear_1528_12454" x1="24.958" y1="50.4431" x2="37.3313" y2="49.1251" gradientUnits="userSpaceOnUse">
<stop stop-color="white"/>
<stop offset="1" stop-color="#ADE8FD"/>
</linearGradient>
<linearGradient id="paint5_linear_1528_12454" x1="19.3804" y1="61.208" x2="24.6775" y2="73.8096" gradientUnits="userSpaceOnUse">
<stop stop-color="#57F287" stop-opacity="0"/>
<stop offset="1" stop-color="#57F287"/>
</linearGradient>
<clipPath id="clip0_1528_12454">
<rect width="60" height="60" rx="30" fill="white"/>
</clipPath>
</defs>
</svg>
