
<svg width="60" height="60" viewBox="0 0 60 60" fill="none" xmlns="http://www.w3.org/2000/svg">
<g clip-path="url(#clip0_1528_40883)">
<rect y="0.00012207" width="60" height="60" rx="30" fill="#FBECCE"/>
<path d="M39.6423 23.0736C40.4478 26.6411 35.9597 30.5538 29.055 33.0855C22.1502 35.6173 15.7058 35.3871 14.6701 32.3951C13.6344 29.403 15.4757 23.3038 20.309 18.2403C25.1423 13.1768 29.055 12.6014 33.1979 15.2483C37.3407 17.8951 38.8367 19.7363 39.6423 23.0736Z" fill="#201D40"/>
<path d="M17.5472 69.105C16.0511 68.1843 17.0868 67.2637 17.5472 65.4225C16.5114 57.8272 15.0154 53.109 14.5551 48.736C14.0948 44.363 14.0948 41.7161 17.5472 40.105C20.9995 38.4939 23.8765 36.4225 24.6821 34.6963L32.2773 36.0773C39.7574 35.0415 41.9439 35.732 45.5114 37.9185L51.0353 41.486C51.0353 41.486 54.3725 35.8471 55.063 35.1566C55.7535 34.4661 57.0193 34.351 58.9757 36.3074C60.932 38.2637 61.2773 38.609 60.0114 41.2558C58.7455 43.9026 55.8685 49.4264 54.3725 51.0376C52.8765 52.6487 50.3447 52.8788 42.5194 49.6566C43.005 54.1665 43.1592 58.7053 42.9797 63.236C43.3249 65.0772 43.5551 65.7677 42.8646 66.9185C37.8207 67.1843 32.8124 67.9162 27.9043 69.105C24.4991 69.9128 20.9523 69.9128 17.5472 69.105Z" fill="#2FA1C0"/>
<path d="M42.5186 49.6566C42.5186 46.2042 42.1733 42.8669 42.1733 41.7161C42.1733 40.5653 42.6336 41.1407 43.4392 42.7518C44.2447 44.3629 43.4392 50.0018 43.4392 50.0018L42.5186 49.6566Z" fill="#207F9E"/>
<path d="M40.4479 55.871C39.182 55.7559 20.4241 57.7123 16.2812 58.0575C16.7416 60.244 17.0868 62.6607 17.5471 65.4226C18.0074 68.1845 16.0511 68.1844 17.5471 69.1051C20.9523 69.9129 24.499 69.9129 27.9042 69.1051C31.3946 68.288 34.9298 67.6735 38.4915 67.2638C38.4915 65.0773 38.1463 64.1567 39.2971 61.74C40.4479 59.3233 41.8288 55.986 40.4479 55.871Z" fill="#2592B5"/>
<path d="M19.273 54.26L20.769 54.0299C22.4952 53.7997 23.3007 54.9505 23.8761 57.5973C24.4515 60.2441 23.4159 61.51 20.8841 62.3156C18.3524 63.1211 17.2016 63.4664 14.7849 63.1211C12.3683 62.7759 12.2531 61.0497 11.2174 59.6688C10.1817 58.2878 10.8722 55.9862 11.2174 54.9505C11.5627 53.9148 11.5627 53.3394 11.6778 48.9664C11.7928 44.5934 13.4039 42.1767 16.9714 40.3354C20.3087 42.7521 20.0786 48.391 19.7333 50.3473L19.273 54.26Z" fill="#2FA1C0"/>
<path d="M32.2767 36.0773L24.6815 34.6963C23.876 36.4225 20.8839 38.4939 17.5466 40.105L16.9712 40.3352H16.626L17.0863 41.0256C21.1141 44.2479 21.3442 47.8153 28.1339 46.2042C34.9236 44.5931 37.1101 37.3431 40.4474 35.5019C37.7108 35.3776 34.9684 35.5709 32.2767 36.0773Z" fill="#2592B5"/>
<path d="M34.3479 49.6569C29.2844 47.3553 24.6812 43.4426 23.0701 36.6529C23.6455 35.8474 23.0701 31.4743 21.8042 26.5259C20.5384 21.5775 22.2645 18.1252 27.328 17.0894C32.3915 16.0537 35.0384 19.391 35.4987 23.6489C35.959 27.9069 35.7288 32.9704 36.0741 35.7323C36.4193 38.4942 38.836 47.01 34.3479 49.6569Z" fill="#9944B1"/>
<path d="M34.3481 49.6568C32.3779 48.727 30.5239 47.5681 28.8242 46.2044C32.2766 45.0536 34.6933 42.0616 36.7647 39.4148C37.225 43.0973 37.4552 47.8155 34.3481 49.6568Z" fill="#A948BA"/>
<path d="M21.9199 26.9863C23.0856 26.3269 24.0593 25.3752 24.7463 24.2256C25.4321 23.0748 25.8061 21.7663 25.8326 20.4268C28.6428 22.4522 32.0377 23.5029 35.4993 23.4189C35.7501 22.6179 35.8099 21.7686 35.6753 20.9401C35.5406 20.1104 35.215 19.3244 34.7236 18.6431C34.2322 17.9618 33.5889 17.4048 32.8444 17.0147C32.101 16.6257 31.2758 16.4151 30.4358 16.399C25.2572 16.1689 21.5746 18.1252 20.7691 21.0022C19.9635 23.8792 20.5389 25.9506 21.9199 26.9863Z" fill="#201D40"/>
<path d="M17.8921 21.0023C22.8405 16.3991 27.6739 14.6729 32.0469 14.6729C31.2414 9.83961 27.6739 7.99835 23.3009 10.8753C18.9278 13.7523 13.7493 18.8158 17.8921 21.0023Z" fill="#812643"/>
<path d="M32.0468 14.4427C31.8512 13.7407 31.621 13.0502 31.3563 12.3713C29.6301 9.03396 25.9476 11.3355 23.1857 12.9467C20.4238 14.5578 16.281 17.6649 16.5111 19.6212C16.7781 20.2404 17.2729 20.7352 17.892 21.0022C22.6103 16.5141 27.3286 14.7879 31.5865 14.6728L32.0468 14.4427Z" fill="#66163A"/>
<path d="M23.1865 17.0897L32.7381 15.5936C33.7738 15.3634 35.7301 15.0182 35.7301 14.673C35.7301 14.3277 35.0397 14.0976 32.0476 14.4428C28.9152 14.5464 25.8633 15.459 23.1865 17.0897Z" fill="#812643"/>
<path d="M22.1849 59.6722C23.0687 59.5686 23.6292 58.1532 23.4359 56.5121C23.2437 54.8711 22.3702 53.6248 21.4864 53.7284C20.6037 53.8319 20.0433 55.2474 20.2355 56.8884C20.4288 58.5295 21.3011 59.7758 22.1849 59.6722Z" fill="#9944B1"/>
<path d="M21.8052 60.7045C24.3669 60.502 26.8468 59.7148 29.0552 58.4029C30.4925 57.6331 31.5973 56.3637 32.1623 54.8355L33.1981 54.4903C33.3212 54.4672 33.4374 54.4166 33.5363 54.3418C33.6365 54.267 33.7171 54.1703 33.7735 54.0587C33.8287 53.9471 33.8574 53.8239 33.8586 53.6996C33.8586 53.5742 33.8299 53.4511 33.7735 53.3395C33.7079 53.1772 33.5973 53.0368 33.4546 52.9344C33.3119 52.8319 33.144 52.7733 32.9679 52.7641L27.5592 53.3395L21.1147 54.7204L21.8052 60.7045Z" fill="#9944B1"/>
<path d="M60.4577 39.8392C60.7569 39.5101 60.0825 38.4123 58.9525 37.3881C57.8224 36.3627 56.6647 35.8 56.3655 36.1291C56.0674 36.4582 56.7406 37.5561 57.8707 38.5814C59.0008 39.6056 60.1585 40.1695 60.4577 39.8392Z" fill="#9944B1"/>
<path d="M55.9836 35.3872C55.7534 35.7324 56.3288 36.7681 57.4796 37.8038L58.6304 36.6531C57.4796 35.6173 56.3288 35.0419 55.9836 35.3872Z" fill="#A948BA"/>
<path d="M60.1266 39.0695L63.0036 35.5021C63.32 34.9002 63.4789 34.227 63.4639 33.5457H64.2695C64.4651 33.548 64.6538 33.4789 64.8023 33.3524C64.9507 33.2246 65.0474 33.0485 65.075 32.8552V31.9346C65.0923 31.7723 65.052 31.6101 64.9599 31.4743L63.4639 29.4028L58.8608 30.2084L55.8687 35.5021L60.1266 39.0695Z" fill="#9944B1"/>
<path d="M55.9829 35.387C56.663 34.1189 57.1671 32.7644 57.4789 31.3593C57.8242 29.9783 57.8241 29.4029 58.9749 28.8275C60.1257 28.2521 61.7369 27.5616 62.5424 27.9069C63.348 28.2521 64.7289 28.8275 64.4987 29.518C64.2686 30.2085 62.6575 29.7482 62.0821 29.7482L58.0543 37.2283L55.9829 35.387Z" fill="#A948BA"/>
<path d="M64.3845 30.2085C64.4995 30.899 64.0392 31.0141 63.2337 31.3593L61.8527 32.0498C61.9678 34.1212 61.8527 35.3871 59.4361 37.5736L58.4003 38.4943L57.4797 37.8038L56.5591 36.8831L57.1345 35.6173L59.3209 30.2085C60.5281 29.8817 61.7595 29.6516 63.0035 29.5181C63.694 29.403 64.2694 29.5181 64.3845 30.2085Z" fill="#A948BA"/>
<path d="M30.3212 27.1015C31.9323 27.1015 33.5433 27.1015 34.0037 27.5618C34.464 28.0222 33.7736 28.9428 32.6228 29.8634C31.472 30.7841 31.9322 30.3237 30.5513 29.1729C29.1703 28.0222 29.0553 27.1015 30.3212 27.1015Z" fill="#471239"/>
<path d="M31.0135 27.2166L29.6325 27.4468C29.5174 27.792 29.9777 28.5976 30.5531 29.173C31.1285 29.7484 32.1643 30.2087 32.6246 29.8635L33.2 29.4031C32.9975 28.9129 32.7005 28.4675 32.3254 28.0924C31.9502 27.7172 31.5037 27.4192 31.0135 27.2166Z" fill="#802147"/>
<path d="M33.4268 27.3314C32.4061 27.1174 31.3612 27.0391 30.3197 27.1012C29.6292 27.1012 29.5141 27.4465 29.6292 27.9068H33.4268C33.657 28.0219 33.5419 27.6767 33.4268 27.3314Z" fill="white"/>
<path d="M30.321 33.5457C30.9033 33.792 31.5316 33.9105 32.1622 33.891C32.6409 33.7828 33.0782 33.5434 33.4281 33.2005C33.5431 32.9703 33.6582 33.0854 33.6582 33.5457C33.5811 33.9531 33.3694 34.3225 33.0552 34.5941C32.7422 34.8657 32.3463 35.0234 31.932 35.0418C31.5431 35.0694 31.1552 34.9739 30.8238 34.7667C30.4935 34.5596 30.2369 34.2535 30.0908 33.891C29.9757 33.5457 29.9757 33.3156 30.321 33.5457Z" fill="#8C2DA6"/>
<path d="M19.272 54.2599C19.7323 50.6924 19.7323 48.1607 20.5379 48.8512C21.3434 49.5417 21.4585 50.2321 20.8831 51.9583C20.3077 53.6845 20.3077 54.1448 20.3077 54.1448L19.272 54.2599Z" fill="#207F9E"/>
<path d="M19.2735 54.2598L13.9799 55.4106C12.9442 55.7559 13.0593 55.0654 13.7498 54.49C14.4402 53.9146 16.0514 53.9146 17.6625 54.0297C19.2736 54.1448 17.8926 53.4543 16.972 52.7638C16.0513 52.0733 16.6267 51.9583 17.3172 51.7281C18.0077 51.4979 18.6982 52.4185 19.3887 53.5693L19.8489 54.1447L19.2735 54.2598Z" fill="#207F9E"/>
<path d="M51.0355 41.486C50.0631 42.8566 49.6131 44.531 49.7696 46.2042C49.8847 47.8153 48.3886 46.7796 48.0434 45.859C47.6982 44.9384 50.5752 41.1407 50.5752 41.1407L51.0355 41.486Z" fill="#207F9E"/>
</g>
<defs>
<clipPath id="clip0_1528_40883">
<rect y="0.00012207" width="60" height="60" rx="30" fill="white"/>
</clipPath>
</defs>
</svg>
