
<svg width="60" height="60" viewBox="0 0 60 60" fill="none" xmlns="http://www.w3.org/2000/svg">
<g clip-path="url(#clip0_1660_1032)">
<rect width="60" height="60" rx="30" fill="#404EED"/>
<path d="M46.216 32.4491C46.0987 32.4558 45.9835 32.4158 45.8957 32.3377C45.8079 32.2596 45.7547 32.1499 45.7477 32.0326C45.7408 31.9744 45.7455 31.9155 45.7616 31.8592C45.7776 31.8029 45.8046 31.7503 45.841 31.7045C45.8774 31.6587 45.9226 31.6205 45.9738 31.5922C46.0251 31.5639 46.0814 31.546 46.1396 31.5396H46.1667C47.3387 31.4382 48.5151 31.3971 49.6913 31.4164C49.7498 31.4157 49.8078 31.4266 49.8621 31.4485C49.9163 31.4703 49.9657 31.5027 50.0074 31.5437C50.0491 31.5847 50.0822 31.6335 50.105 31.6874C50.1277 31.7413 50.1396 31.7991 50.1399 31.8576C50.1411 31.8748 50.1411 31.8921 50.1399 31.9093C50.1342 32.0294 50.0823 32.1426 49.995 32.2253C49.9077 32.308 49.7918 32.3538 49.6716 32.353C49.6716 32.353 48.5871 32.3037 46.2456 32.4516L46.216 32.4491Z" fill="black"/>
<path d="M46.2162 32.4491C46.0952 32.4556 45.9766 32.4139 45.8865 32.333C45.7964 32.2521 45.7421 32.1387 45.7355 32.0178C45.729 31.8968 45.7708 31.7783 45.8517 31.6881C45.9325 31.598 46.0459 31.5437 46.1669 31.5371C48.114 31.3893 48.8288 30.1815 48.8535 30.1322C48.911 30.0296 49.0069 29.954 49.1202 29.9221C49.2334 29.8902 49.3547 29.9046 49.4573 29.9621L49.4943 29.9843C49.5459 30.0118 49.5915 30.0491 49.6285 30.0942C49.6656 30.1393 49.6934 30.1913 49.7103 30.2472C49.7273 30.303 49.733 30.3617 49.7273 30.4198C49.7215 30.4779 49.7043 30.5343 49.6767 30.5857V30.6005C49.6274 30.6745 48.6908 32.2519 46.2507 32.4491H46.2162Z" fill="black"/>
<path d="M49.0542 31.9562C48.6009 31.9497 48.1684 31.7651 47.8501 31.4422C47.5319 31.1194 47.3535 30.6842 47.3535 30.2309C47.3535 29.7798 47.5327 29.3472 47.8516 29.0283C48.1706 28.7093 48.6032 28.5302 49.0542 28.5302C49.5053 28.5302 49.9378 28.7093 50.2568 29.0283C50.5757 29.3472 50.7549 29.7798 50.7549 30.2309C50.755 30.6842 50.5766 31.1194 50.2583 31.4422C49.9401 31.7651 49.5075 31.9497 49.0542 31.9562ZM49.0542 29.4421C48.847 29.4483 48.65 29.5334 48.5034 29.68C48.3568 29.8266 48.2717 30.0236 48.2655 30.2309C48.2655 30.44 48.3486 30.6407 48.4965 30.7886C48.6444 30.9365 48.845 31.0196 49.0542 31.0196C49.1578 31.0196 49.2604 30.9992 49.356 30.9595C49.4517 30.9199 49.5387 30.8618 49.6119 30.7886C49.6852 30.7153 49.7433 30.6284 49.7829 30.5327C49.8225 30.437 49.8429 30.3344 49.8429 30.2309C49.8429 30.1273 49.8225 30.0247 49.7829 29.929C49.7433 29.8333 49.6852 29.7464 49.6119 29.6731C49.5387 29.5999 49.4517 29.5418 49.356 29.5022C49.2604 29.4625 49.1578 29.4421 49.0542 29.4421Z" fill="white"/>
<path d="M46.2179 32.4491C46.1109 32.4512 46.0064 32.4164 45.9221 32.3505C45.828 32.2799 45.7657 32.1749 45.7491 32.0584C45.7324 31.9419 45.7628 31.8236 45.8334 31.7294L45.8482 31.7097C47.5242 29.4914 49.2988 29.9104 49.3728 29.9351C49.4881 29.9577 49.5897 30.0252 49.6554 30.1227C49.721 30.2202 49.7452 30.3398 49.7228 30.4551C49.7239 30.4625 49.7239 30.47 49.7228 30.4773C49.6882 30.5951 49.6109 30.6957 49.5061 30.7595C49.4013 30.8234 49.2764 30.8458 49.1559 30.8224C49.1066 30.7977 47.8742 30.5759 46.5679 32.2766C46.5297 32.3334 46.4773 32.3793 46.4159 32.4095C46.3545 32.4398 46.2862 32.4535 46.2179 32.4491Z" fill="black"/>
<path d="M42.9163 48.0017C42.1662 47.9965 41.4261 47.8283 40.7473 47.5088C38.2519 46.348 35.8955 44.9094 33.7227 43.2201C33.2466 42.8529 32.9358 42.3117 32.8586 41.7155C32.7814 41.1193 32.9442 40.5168 33.3111 40.0405L33.3283 40.0159C33.7024 39.5408 34.2491 39.2328 34.8493 39.1589C35.4494 39.085 36.0544 39.2513 36.5326 39.6215C38.4322 41.0884 40.491 42.3369 42.6699 43.3433C42.7537 43.3898 42.8487 43.4121 42.9445 43.4078C43.0402 43.4034 43.1329 43.3726 43.2121 43.3187C43.2972 43.2696 43.3702 43.202 43.4256 43.121C43.4811 43.0399 43.5176 42.9474 43.5325 42.8504C44.0994 38.5123 44.0255 33.4102 44.0255 33.361C44.0129 32.7532 44.2421 32.1652 44.6626 31.7262C45.0831 31.2872 45.6607 31.033 46.2684 31.0194H46.2931C46.8993 31.0186 47.4816 31.2558 47.9149 31.6798C48.3481 32.1038 48.5977 32.6809 48.61 33.287C48.61 33.5088 48.6839 38.7835 48.0677 43.4665C47.8977 44.7155 47.2834 45.8614 46.3373 46.6943C45.3912 47.5272 44.1768 47.9913 42.9163 48.0017Z" fill="url(#paint0_linear_1660_1032)"/>
<path d="M48.439 39.5233L43.9038 38.8331C43.8791 39.055 43.8791 39.2768 43.8545 39.474L48.3897 40.1641C48.4185 39.9516 48.4349 39.7377 48.439 39.5233Z" fill="#51B1FC"/>
<path d="M46.1432 46.8434L43.4837 43.0229C43.4353 43.1531 43.338 43.2593 43.2126 43.3187C43.1479 43.3654 43.0705 43.3912 42.9907 43.3927L45.628 47.2131C45.819 47.1191 45.993 46.9942 46.1432 46.8434Z" fill="#51B1FC"/>
<path d="M44.0249 34.2976V34.9385L48.6094 35.111V34.4701L44.0249 34.2976Z" fill="#51B1FC"/>
<path d="M37.8169 45.9808L38.3591 46.3012L40.257 42.1111L39.7148 41.7906L37.8169 45.9808Z" fill="#51B1FC"/>
<path d="M42.349 14.9494C41.9985 13.8111 41.3378 12.793 40.4409 12.0093C39.544 11.2256 38.4465 10.7074 37.2715 10.5128C28.3573 9.01364 19.1974 10.4495 11.1695 14.6043C10.1067 15.155 9.21855 15.991 8.60464 17.0185C7.99074 18.046 7.67543 19.2244 7.69415 20.4212C7.74036 22.3948 7.92153 24.363 8.2364 26.312C8.53451 28.2712 8.97105 30.2067 9.54273 32.1042C9.89507 33.2458 10.5595 34.2662 11.4611 35.0501C12.3626 35.8341 13.4654 36.3504 14.6448 36.5408C23.5536 38.0507 32.7117 36.6052 40.7222 32.4246C41.7876 31.8838 42.6789 31.0534 43.2937 30.0288C43.9084 29.0042 44.2217 27.827 44.1975 26.6324C44.1608 24.6511 43.9879 22.6746 43.6799 20.7169C43.3599 18.768 42.9154 16.8415 42.349 14.9494Z" fill="url(#paint1_linear_1660_1032)"/>
<path d="M40.4021 16.231C40.1792 15.4248 39.7278 14.7004 39.1024 14.1449C38.477 13.5895 37.7043 13.2269 36.8775 13.1007C33.8305 12.6565 30.7304 12.7315 27.7085 13.3225C24.6517 13.929 21.7187 15.0456 19.0325 16.6253C18.2862 17.0584 17.6718 17.6863 17.255 18.4417C16.8382 19.1972 16.6347 20.0518 16.6663 20.914C16.7126 22.342 16.8443 23.7659 17.0606 25.1781C17.285 26.5849 17.5979 27.9761 17.9973 29.3436C18.2292 30.145 18.6833 30.8643 19.3071 31.4182C19.9308 31.9722 20.6987 32.3382 21.5219 32.4739C24.5785 32.9099 27.6867 32.8266 30.7155 32.2274C33.7689 31.622 36.7007 30.5142 39.3916 28.9492C40.1298 28.5092 40.7365 27.8792 41.1483 27.1248C41.5602 26.3705 41.7621 25.5195 41.7331 24.6605C41.7017 23.2317 41.5699 21.8068 41.3387 20.3964C41.1267 18.9873 40.8137 17.5952 40.4021 16.231Z" fill="#FF5D12"/>
<path d="M39.686 16.9704C39.4618 16.1643 39.0142 15.4381 38.3949 14.8755C37.7756 14.3129 37.0098 13.9369 36.186 13.7908C33.1446 13.314 30.0445 13.3557 27.017 13.9141C23.9274 14.503 20.955 15.5937 18.2177 17.1429C17.4677 17.5842 16.8515 18.2208 16.4348 18.9848C16.0181 19.7487 15.8165 20.6114 15.8516 21.4809C15.906 22.9257 16.0459 24.366 16.2706 25.7943C16.5127 27.2262 16.842 28.6419 17.2565 30.0337C17.492 30.8486 17.9561 31.5788 18.5939 32.138C19.2317 32.6972 20.0164 33.0618 20.8551 33.1886C23.9184 33.6341 27.035 33.5591 30.0733 32.9668C33.118 32.3579 36.0411 31.2503 38.7247 29.6887C39.4568 29.2499 40.0578 28.6229 40.4653 27.8729C40.8728 27.123 41.0718 26.2775 41.0416 25.4246C40.9896 23.996 40.8496 22.5719 40.6226 21.1605C40.4082 19.7437 40.0952 18.3436 39.686 16.9704Z" fill="black"/>
<path d="M11.5212 32.7256C13.2349 32.1853 13.9339 29.5582 13.0825 26.8578C12.231 24.1574 10.1516 22.4064 8.43789 22.9467C6.72419 23.487 6.02518 26.1141 6.8766 28.8145C7.72803 31.5149 9.80747 33.2659 11.5212 32.7256Z" fill="#FFE75C"/>
<path d="M16.6652 12.2381C18.6617 11.6219 20.1899 11.0057 22.2356 11.6219C23.1969 11.9177 24.1089 12.0656 28.4222 11.3261C30.8624 10.9071 30.6159 10.1431 30.4927 9.32967C30.2462 8.12193 27.7814 7.72757 21.8413 8.78742C16.2709 9.79798 16.6652 12.2381 16.6652 12.2381Z" fill="url(#paint2_linear_1660_1032)"/>
<path d="M37.6159 41.6426C37.4217 40.8772 36.981 40.1971 36.3618 39.7071C35.7426 39.217 34.9793 38.9445 34.1898 38.9314L21.7427 38.6109C20.9515 38.586 20.1739 38.8206 19.5286 39.279C18.8832 39.7374 18.4057 40.3944 18.1687 41.1497L15.1617 50.6637C14.4248 52.9886 14.592 55.506 15.63 57.713C16.054 58.6512 16.7352 59.4501 17.5945 60.0172C18.4539 60.5843 19.4563 60.8963 20.4856 60.9172L34.313 61.2623C35.3407 61.2877 36.3552 61.0268 37.2431 60.5088C38.1311 59.9909 38.8575 59.2362 39.3412 58.3292C40.4792 56.1622 40.7692 53.6491 40.1546 51.2799L37.6159 41.6426Z" fill="#FF962A"/>
<path d="M36.7793 50.861H29.804C29.5641 50.8572 29.3334 50.7685 29.1528 50.6105C28.9723 50.4525 28.8537 50.2356 28.8181 49.9983C28.7195 49.2836 28.547 48.1005 28.2759 46.2765C28.0047 44.4526 27.7583 42.2096 27.0928 40.6815C27.0537 40.5987 27.0489 40.5039 27.0794 40.4176C27.1098 40.3313 27.1731 40.2605 27.2554 40.2206C27.312 40.193 27.3752 40.1819 27.4378 40.1885L34.4378 40.3364C34.61 40.344 34.7775 40.3956 34.9242 40.4862C35.0708 40.5768 35.1919 40.7034 35.2758 40.854C36.2617 42.7519 36.7054 45.9315 37.4448 50.0723C37.4581 50.162 37.4535 50.2534 37.4312 50.3413C37.409 50.4292 37.3696 50.5119 37.3153 50.5845C37.261 50.6571 37.1929 50.7183 37.1149 50.7645C37.0368 50.8106 36.9505 50.8409 36.8607 50.8536L36.7793 50.861Z" fill="#FFE75C"/>
<path d="M40.255 37.7482C39.865 37.7482 39.4838 37.6326 39.1595 37.4159C38.8353 37.1992 38.5825 36.8913 38.4333 36.531C38.2841 36.1707 38.245 35.7742 38.3211 35.3917C38.3972 35.0092 38.585 34.6579 38.8607 34.3821C39.1365 34.1063 39.4879 33.9185 39.8703 33.8425C40.2528 33.7664 40.6493 33.8054 41.0096 33.9547C41.3699 34.1039 41.6779 34.3566 41.8945 34.6809C42.1112 35.0052 42.2269 35.3864 42.2269 35.7764C42.2269 36.2993 42.0191 36.8009 41.6493 37.1707C41.2795 37.5405 40.778 37.7482 40.255 37.7482ZM40.255 34.7412C40.0455 34.7364 39.8392 34.7938 39.6623 34.9062C39.4854 35.0186 39.3458 35.1809 39.2611 35.3726C39.1765 35.5644 39.1506 35.7769 39.1867 35.9834C39.2228 36.1898 39.3193 36.381 39.464 36.5326C39.6088 36.6842 39.7952 36.7895 39.9997 36.8351C40.2043 36.8808 40.4178 36.8648 40.6133 36.7892C40.8087 36.7135 40.9774 36.5816 41.0979 36.4101C41.2184 36.2386 41.2853 36.0352 41.2902 35.8257C41.2927 35.8093 41.2927 35.7927 41.2902 35.7764C41.2902 35.5018 41.1812 35.2385 40.987 35.0444C40.7929 34.8502 40.5296 34.7412 40.255 34.7412Z" fill="black"/>
<path d="M38.751 37.7485C38.6414 37.7492 38.5355 37.7093 38.4536 37.6365C38.3716 37.5636 38.3196 37.4631 38.3074 37.3542C38.2827 37.3295 37.8884 34.1253 37.568 32.5725C37.555 32.5142 37.5537 32.454 37.564 32.3952C37.5743 32.3364 37.5961 32.2802 37.6282 32.2299C37.6602 32.1795 37.7019 32.136 37.7507 32.1017C37.7996 32.0675 37.8548 32.0432 37.913 32.0302C37.9713 32.0173 38.0315 32.0159 38.0903 32.0263C38.1491 32.0366 38.2053 32.0584 38.2556 32.0905C38.306 32.1225 38.3495 32.1641 38.3838 32.213C38.418 32.2619 38.4423 32.317 38.4553 32.3753C38.8003 33.9774 39.1947 37.1077 39.2194 37.2309C39.2342 37.3516 39.2012 37.4733 39.1275 37.57C39.0538 37.6667 38.9453 37.7308 38.825 37.7485H38.751Z" fill="black"/>
<path d="M26.6456 48.2483C23.9836 48.3715 22.0118 46.6216 19.5963 44.5018L19.1773 44.1321C18.723 43.7301 18.447 43.1641 18.41 42.5585C18.373 41.953 18.5781 41.3576 18.9801 40.9033C19.3822 40.4489 19.9482 40.1729 20.5537 40.136C21.1593 40.099 21.7547 40.304 22.209 40.7061L22.628 41.0758C25.3639 43.4913 25.9555 43.8363 26.8674 43.6145C28.5928 43.1955 31.7477 40.5828 36.628 36.1955C37.0857 35.8399 37.6611 35.6708 38.2384 35.7224C38.8158 35.7739 39.3521 36.0423 39.7396 36.4734C40.127 36.9046 40.3367 37.4665 40.3264 38.0461C40.3161 38.6256 40.0867 39.1797 39.6843 39.5969C33.7935 44.9208 30.6878 47.3856 27.9519 48.0758C27.524 48.1801 27.086 48.238 26.6456 48.2483Z" fill="url(#paint3_linear_1660_1032)"/>
<path d="M53.3679 42.3083H53.3186L42.1778 40.8541C42.1017 40.8427 42.0299 40.8117 41.9694 40.7642C41.9089 40.7166 41.8618 40.6542 41.8327 40.583C41.7991 40.5074 41.7859 40.4244 41.7946 40.3422C41.8032 40.26 41.8334 40.1815 41.882 40.1146L48.6848 31.1921C48.7382 31.1283 48.8068 31.0789 48.8844 31.0488C48.962 31.0186 49.0459 31.0086 49.1284 31.0196C49.2084 31.0302 49.2836 31.0638 49.3449 31.1163C49.4061 31.1688 49.4508 31.238 49.4735 31.3154L53.8115 41.6675C53.8377 41.7416 53.8446 41.8212 53.8316 41.8988C53.8187 41.9764 53.7864 42.0494 53.7376 42.1111C53.6971 42.1721 53.6422 42.222 53.5776 42.2564C53.5131 42.2908 53.441 42.3087 53.3679 42.3083ZM43.0897 40.0407L52.6531 41.2731L48.9313 32.3999L43.0897 40.0407Z" fill="white"/>
<path d="M50.3134 38.759H50.1902L40.7747 36.0477C40.6508 36.0366 40.5364 35.9767 40.4567 35.8813C40.377 35.7858 40.3384 35.6626 40.3495 35.5387C40.3606 35.4149 40.4205 35.3005 40.516 35.2208C40.6114 35.141 40.7346 35.1025 40.8585 35.1136C40.9149 35.1204 40.9698 35.1363 41.0212 35.1604L50.4366 37.847C50.555 37.8867 50.654 37.9698 50.7134 38.0796C50.7729 38.1894 50.7885 38.3177 50.7571 38.4386C50.7267 38.5322 50.6674 38.6137 50.5876 38.6713C50.5078 38.7289 50.4118 38.7596 50.3134 38.759Z" fill="#FFE75C"/>
<path d="M26.5226 21.2837L19.8677 22.5654C20.088 21.877 20.4909 21.2614 21.0334 20.7839C21.576 20.3065 22.2379 19.9851 22.9487 19.8541C23.619 19.7104 24.3169 19.7697 24.9535 20.0243C25.59 20.2789 26.1363 20.7173 26.5226 21.2837Z" fill="#57F287"/>
<path d="M32.2651 20.1748L38.5996 18.9424C38.2297 18.3976 37.7075 17.9738 37.0982 17.7239C36.4889 17.4741 35.8195 17.4092 35.1736 17.5374C34.4956 17.673 33.8671 17.9898 33.3549 18.4542C32.8428 18.9186 32.4661 19.5132 32.2651 20.1748Z" fill="#57F287"/>
<path d="M23.6904 25.4739L35.9404 23.0338C36.2115 25.3754 34.289 28.1113 30.5179 28.9C26.7468 29.6887 24.0601 27.8648 23.6904 25.4739Z" fill="#57F287"/>
<path d="M14.8923 55.4456L40.1809 56.0618C40.2531 55.7856 40.3107 55.5059 40.3535 55.2237L14.769 54.5829C14.7866 54.8733 14.8278 55.1618 14.8923 55.4456Z" fill="#FF5D12"/>
<path d="M34.5611 38.0439L34.0928 38.463L37.0505 41.9629L37.5188 41.5439L34.5611 38.0439Z" fill="#3F99F2"/>
<path d="M20.4858 45.2906L20.9788 45.7096L23.4929 41.8399L23.0246 41.4209L20.4858 45.2906Z" fill="#3F99F2"/>
<path d="M32.1194 45.9562L32.637 45.5618L30.3447 41.5688L29.8271 41.9386L32.1194 45.9562Z" fill="#3F99F2"/>
<path d="M26.525 43.6639C26.3065 43.6881 26.0854 43.6541 25.8842 43.5653L25.687 48.2237H26.3279L26.525 43.6639Z" fill="#3F99F2"/>
</g>
<defs>
<linearGradient id="paint0_linear_1660_1032" x1="38.9357" y1="44.0482" x2="45.1618" y2="39.0299" gradientUnits="userSpaceOnUse">
<stop stop-color="#66BCFF"/>
<stop offset="1" stop-color="#8CD9FF"/>
</linearGradient>
<linearGradient id="paint1_linear_1660_1032" x1="24.1047" y1="8.29692" x2="27.6934" y2="37.8003" gradientUnits="userSpaceOnUse">
<stop stop-color="#FFC618"/>
<stop offset="0.31" stop-color="#FFAD19"/>
<stop offset="1" stop-color="#FF7D12"/>
</linearGradient>
<linearGradient id="paint2_linear_1660_1032" x1="10573.1" y1="4977.24" x2="11357.5" y2="4977.24" gradientUnits="userSpaceOnUse">
<stop stop-color="#66BCFF"/>
<stop offset="1" stop-color="#8CD9FF"/>
</linearGradient>
<linearGradient id="paint3_linear_1660_1032" x1="18176" y1="-13109" x2="19302.1" y2="-13154.1" gradientUnits="userSpaceOnUse">
<stop stop-color="#66BCFF"/>
<stop offset="1" stop-color="#8CD9FF"/>
</linearGradient>
<clipPath id="clip0_1660_1032">
<rect width="60" height="60" rx="30" fill="white"/>
</clipPath>
</defs>
</svg>
