
<svg width="60" height="60" viewBox="0 0 60 60" fill="none" xmlns="http://www.w3.org/2000/svg">
<g clip-path="url(#clip0_1528_46768)">
<rect width="60" height="60" rx="30" fill="#19B375"/>
<path d="M16.3998 23.178C17.1226 23.178 17.7088 22.5919 17.7088 21.8689C17.7088 21.146 17.1226 20.5599 16.3998 20.5599C15.6767 20.5599 15.0908 21.146 15.0908 21.8689C15.0908 22.5919 15.6767 23.178 16.3998 23.178Z" fill="#FFD736"/>
<path d="M32.6028 23.8856C31.1551 22.0676 29.2068 20.7136 26.9978 19.9913C24.7891 19.2689 22.417 19.2098 20.175 19.8213C17.9331 20.4328 15.9193 21.688 14.3832 23.4317C12.847 25.1754 11.8557 27.3312 11.5317 29.6324C11.2076 31.9336 11.5653 34.2793 12.5605 36.3794C13.5553 38.4795 15.1442 40.2419 17.1303 41.4486C19.1161 42.6553 21.4126 43.2533 23.7348 43.1691C26.0571 43.0846 28.304 42.3213 30.1971 40.9735C31.5043 40.0305 32.6074 38.833 33.4399 37.4529C34.2727 36.0728 34.8179 34.5385 35.0425 32.9424C35.2672 31.3463 35.1671 29.7212 34.7478 28.1648C34.3282 26.6084 33.5987 25.1529 32.6028 23.8856Z" fill="#1D2CC2"/>
<path d="M38.618 26.9281C44.3493 19.7462 45.0569 15.5362 39.1487 14.1564C35.4364 13.3137 31.5851 13.2896 27.8629 14.0856C26.3788 14.44 24.9827 15.0934 23.76 16.0059C22.5373 16.9184 21.5135 18.0707 20.7518 19.3924C16.2941 27.105 15.728 29.7584 15.728 29.7584L38.618 26.9281Z" fill="#FF78B9"/>
<path d="M34.0508 22.9301C37.3056 22.9301 37.2349 24.0269 37.058 25.3359C36.8811 26.6449 34.0508 22.9301 34.0508 22.9301Z" fill="black"/>
<path d="M39.1487 14.1564C35.4364 13.3137 31.5851 13.2896 27.8629 14.0856C26.3788 14.44 24.9827 15.0934 23.76 16.0059C22.5373 16.9184 21.5135 18.0707 20.7518 19.3924C16.2941 27.105 15.728 29.7584 15.728 29.7584L38.618 26.9281C44.3493 19.7462 45.0569 15.5362 39.1487 14.1564ZM37.875 26.3974L16.9663 29.0154C16.9663 29.0154 17.6738 26.6451 22.2023 19.7462C23.7179 17.4556 26.065 15.8444 28.7474 15.2531C32.0496 14.5445 35.4672 14.5687 38.7595 15.3239C44.0309 16.456 42.7219 19.4278 37.875 26.3974Z" fill="#EB459F"/>
<path d="M39.2903 49.0751C47.2505 48.226 53.4772 49.252 50.9299 65.0662C50.2577 69.2055 49.6917 72.9203 49.161 76.1398C54.1494 80.5621 53.5479 88.2393 49.6917 92.3786C45.8354 96.5179 41.0239 93.3338 38.3351 88.027C35.6463 82.7202 33.4175 77.1657 33.4175 77.1657L39.2903 49.0751Z" fill="#459FF7"/>
<path d="M10.4907 47.6601C12.3658 43.6977 12.4366 40.0184 12.3658 36.7281C12.3149 34.7422 12.6644 32.7663 13.3939 30.9185C14.1231 29.0706 15.2173 27.3887 16.6113 25.973C20.1845 22.4706 24.1115 21.9399 27.7201 21.7276C34.1944 21.3031 47.426 26.8221 42.8976 48.9337C40.1027 62.5899 36.0341 78.5103 36.0341 78.5103C36.0341 78.5103 49.6549 103.452 22.7318 103.452C2.53055 103.452 -2.45783 100.976 -5.04047 93.9C-6.83311 88.8943 -6.85787 83.4261 -5.11122 78.4041C1.43382 59.1935 6.03304 57.1062 10.4907 47.6601Z" fill="#459FF7"/>
<path d="M27.7218 21.7277C24.467 21.94 20.9292 22.3645 17.6743 25.0533H17.7097C33.5239 28.4143 33.6301 32.1644 39.8213 27.3883C36.2481 22.8952 31.0828 21.5154 27.7218 21.7277Z" fill="#2A88E6"/>
<path d="M2.00098 64.5353L7.80308 58.4148C7.8604 58.3472 7.93894 58.3016 8.02561 58.2846C8.11264 58.268 8.2025 58.2811 8.28069 58.3225C8.35923 58.3635 8.42114 58.4304 8.45652 58.5114C8.49155 58.5924 8.49827 58.6833 8.47527 58.7686C6.70634 68.5331 6.45869 72.7078 6.45869 72.7078L2.00098 64.5353Z" fill="black"/>
<path d="M26.9419 26.5037C27.1167 25.9312 27.1885 25.3323 27.1542 24.7347" stroke="black" stroke-width="1.34482" stroke-linecap="round" stroke-linejoin="round"/>
<path d="M27.4375 26.6806C27.7849 26.1848 28.0481 25.6349 28.2158 25.0532" stroke="black" stroke-width="1.34482" stroke-linecap="round" stroke-linejoin="round"/>
<path d="M27.5073 26.645C28.0861 26.5034 28.6366 26.2641 29.1347 25.9374" stroke="black" stroke-width="1.34482" stroke-linecap="round" stroke-linejoin="round"/>
<path d="M35.7158 27.2817C35.8435 26.8095 35.8796 26.3171 35.822 25.8312" stroke="black" stroke-width="1.34482" stroke-linecap="round" stroke-linejoin="round"/>
<path d="M36.2466 27.3882C36.5006 26.9704 36.6913 26.5174 36.8126 26.0438" stroke="black" stroke-width="1.34482" stroke-linecap="round" stroke-linejoin="round"/>
<path d="M36.2812 27.3881C36.7504 27.2346 37.1922 27.0077 37.5903 26.7159" stroke="black" stroke-width="1.34482" stroke-linecap="round" stroke-linejoin="round"/>
<path d="M30.515 108.122C29.8732 107.932 29.31 107.54 28.9088 107.005C28.5072 106.47 28.289 105.819 28.2861 105.15C28.2861 99.2774 28.3215 83.0032 29.4536 72.425C31.3287 58.1674 39.4304 58.9457 42.7206 59.7948C48.1689 61.2099 49.3718 66.1276 47.7444 74.7953C46.117 83.4631 45.4094 92.8031 46.0816 103.877C46.14 104.774 45.8969 105.666 45.3903 106.41C44.884 107.153 44.1435 107.706 43.2867 107.98C38.8643 109.431 35.0081 109.466 30.515 108.122Z" fill="#3442D9"/>
<path d="M31.2238 107.273C31.6459 106.981 31.9809 106.58 32.1929 106.113C32.4048 105.645 32.4854 105.129 32.4267 104.619C31.2592 93.0859 31.0116 78.4392 30.9054 69.3115C30.7993 60.1838 26.4831 59.7946 23.0868 59.7946C19.6904 59.7946 16.6832 59.7239 13.6406 64.1816C10.5981 68.6393 4.19456 75.7858 -3.37646 97.2606L15.1266 94.7841C15.1266 99.4187 14.7728 103.027 15.0558 107.662C15.0869 108.106 15.2529 108.53 15.5309 108.878C15.809 109.225 16.1862 109.48 16.6125 109.608C22.0608 111.377 27.7567 109.714 31.2238 107.273Z" fill="#3442D9"/>
<path d="M29.1426 33.8906C30.4424 33.5325 31.0081 31.4709 30.4063 29.2858C29.8045 27.1006 28.2627 25.6194 26.9629 25.9774C25.6631 26.3355 25.0974 28.3971 25.6992 30.5823C26.3013 32.7674 27.8427 34.2486 29.1426 33.8906Z" fill="white"/>
<path d="M21.1387 30.9614C24.4996 29.9355 28.3913 31.0322 31.5046 33.6502L29.1342 35.1715L21.1387 30.9614Z" fill="#459FF7"/>
<path d="M29.1766 31.2719C29.7604 31.1111 30.0151 30.1866 29.7455 29.2071C29.4755 28.2275 28.7835 27.5638 28.1994 27.7247C27.6153 27.8855 27.361 28.81 27.6305 29.7895C27.9005 30.7691 28.5925 31.4328 29.1766 31.2719Z" fill="black"/>
<path d="M38.5659 33.7573C39.5473 33.3669 39.6746 31.3711 38.8503 29.2996C38.0263 27.228 36.5627 25.8652 35.5813 26.2556C34.6003 26.646 34.4729 28.6418 35.2969 30.7133C36.1212 32.7849 37.5848 34.1477 38.5659 33.7573Z" fill="white"/>
<path d="M34.2659 39.5581C34.378 39.6308 34.51 39.6665 34.6434 39.6601C34.7764 39.6538 34.9045 39.6057 35.0088 39.5227C39.2189 36.4447 41.4124 36.2325 41.4124 39.8057C41.4124 43.379 38.6174 48.8627 33.9121 48.8627C29.2067 48.8627 24.7844 46.2446 23.2277 41.6454C21.6711 37.0462 24.6429 35.3126 27.6147 36.091C30.5865 36.8693 33.2399 38.8151 34.2659 39.5581Z" fill="black"/>
<path d="M29.8431 42.3883C31.0814 41.4331 33.1333 41.7161 34.4424 42.6713C35.7514 43.6265 37.4849 45.4662 35.9636 47.129C34.4424 48.7918 31.046 47.9427 29.2063 46.4214C27.3666 44.9001 25.8807 43.6619 26.093 42.5298C26.3053 41.3977 27.402 41.1854 29.8431 42.3883Z" fill="#FF78B9"/>
<path d="M37.6785 31.2393C38.0783 31.081 38.1282 30.2606 37.7903 29.4067C37.4521 28.5529 36.8542 27.989 36.4544 28.1472C36.0546 28.3055 36.0048 29.1259 36.343 29.9798C36.6808 30.8336 37.2791 31.3975 37.6785 31.2393Z" fill="black"/>
<path d="M18.8394 33.5087C16.9997 34.7116 14.6647 37.2235 14.7001 42.1057" stroke="#2A88E6" stroke-width="2.68964" stroke-linecap="round" stroke-linejoin="round"/>
<path d="M36.0349 22.9302C36.0349 20.3122 31.7187 20.9844 29.4899 21.1259C26.2704 21.3028 21.3881 21.5504 17.7441 24.9821V25.0529C20.3622 22.6118 30.1974 22.9302 36.0349 22.9302Z" fill="#FF78B9"/>
<path d="M17.709 25.0532C18.2411 24.6099 18.8538 24.2736 19.5133 24.0626L19.9378 23.3551C19.9378 22.6829 19.5841 22.5414 19.301 22.7536C19.018 22.9659 18.3458 24.0273 17.7444 24.9825L17.709 25.0532Z" fill="#EB459F"/>
<path d="M42.9335 48.8626C42.5312 50.9599 41.9513 53.0193 41.1999 55.0185C41.1762 55.067 41.1691 55.1215 41.1794 55.1742C41.1896 55.2269 41.2169 55.275 41.2569 55.3107C41.2968 55.3468 41.3474 55.3687 41.4008 55.3733C41.4543 55.3783 41.508 55.3652 41.5537 55.3369C43.2872 54.6647 45.3746 51.1622 46.3652 49.3225C45.2504 48.9995 44.0939 48.8446 42.9335 48.8626Z" fill="black"/>
<path d="M14.9838 50.844C8.75719 46.457 3.30889 39.735 -3.37768 47.2C-10.0642 54.6649 -14.0266 60.9623 -16.5385 65.4908C-19.0504 70.0192 -15.3003 72.991 -10.0996 76.7412C-6.10183 79.6068 1.85836 86.6472 7.20053 82.3664C8.86333 81.022 10.9153 77.2718 11.6936 73.5571C12.472 69.8423 9.74779 67.3304 1.99987 64.5355L14.9838 50.844Z" fill="#459FF7"/>
<path d="M10.9512 47.6599L16.5764 51.9761" stroke="black" stroke-width="1.34482" stroke-linecap="round" stroke-linejoin="round"/>
<path d="M29.8428 41.9995C31.6818 42.819 33.3138 44.0398 34.6189 45.5728" stroke="black" stroke-width="1.34482" stroke-linecap="round" stroke-linejoin="round"/>
</g>
<defs>
<clipPath id="clip0_1528_46768">
<rect width="60" height="60" rx="30" fill="white"/>
</clipPath>
</defs>
</svg>
