
<svg width="60" height="60" viewBox="0 0 60 60" fill="none" xmlns="http://www.w3.org/2000/svg">
<path d="M29.9997 5.88757C16.1923 5.88757 4.99976 17.0801 4.99976 30.8875C4.99976 44.695 16.1923 55.8876 29.9997 55.8876C43.8072 55.8876 54.9998 44.695 54.9998 30.8875C54.9998 17.0801 43.8046 5.88757 29.9997 5.88757ZM41.7672 39.12L38.2322 42.655L29.9997 34.425L21.7672 42.655L18.2323 39.12L26.4622 30.8875L18.2297 22.6551L21.7648 19.1226L29.9972 27.3551L38.2297 19.1226L41.7646 22.6551L33.5347 30.8875L41.7672 39.12Z" fill="#EB3D47"/>
<path d="M41.7672 39.12L38.2322 42.655L29.9997 34.425L21.7672 42.655L18.2323 39.12L26.4622 30.8875L18.2297 22.6551L21.7648 19.1226L29.9972 27.3551L38.2297 19.1226L41.7646 22.6551L33.5347 30.8875L41.7672 39.12Z" fill="white"/>
</svg>
