
<svg width="60" height="60" viewBox="0 0 60 60" fill="none" xmlns="http://www.w3.org/2000/svg">
<path fill-rule="evenodd" clip-rule="evenodd" d="M51.2145 20.8407C52.0796 20.3208 53.1773 20.3733 53.9899 20.9757C54.7999 21.5808 55.1696 22.6107 54.9274 23.5908L49.9271 43.5909C49.6474 44.7058 48.6473 45.4858 47.4998 45.4858H12.4997C11.3522 45.4858 10.3522 44.7032 10.0722 43.5909L5.07217 23.5908C4.8297 22.6107 5.19967 21.5808 6.00967 20.9757C6.8247 20.3757 7.9197 20.3232 8.78719 20.8407L19.2447 27.1158L27.9222 14.0982C27.9815 14.0093 28.0641 13.9506 28.1471 13.8917C28.197 13.8561 28.2471 13.8206 28.2922 13.7783L25.8847 11.3682C25.3997 10.8833 25.3997 10.0857 25.8847 9.60076L29.1172 6.36826C29.6022 5.88327 30.3997 5.88327 30.8847 6.36826L34.1172 9.60076C34.6022 10.0857 34.6022 10.8833 34.1172 11.3682L31.7097 13.7783C31.7548 13.8214 31.8058 13.8576 31.8569 13.8939C31.9389 13.9521 32.0211 14.0105 32.0797 14.0982L40.7573 27.1158L51.2145 20.8407ZM10 47.9856H49.9999V52.9858H10V47.9856Z" fill="#ED9F2E"/>
</svg>
