
<svg width="60" height="60" viewBox="0 0 60 60" fill="none" xmlns="http://www.w3.org/2000/svg">
<path d="M36.9385 48.5689C37.6366 48.4176 38.3563 48.3938 39.0629 48.4986C39.336 48.5748 39.5784 48.7344 39.7564 48.9551C39.9948 49.2049 40.2947 49.3875 40.626 49.4846C40.9573 49.5816 41.3083 49.5898 41.6438 49.5082L40.2129 50.5265C39.611 50.373 38.9972 50.2702 38.3782 50.2192C37.9485 49.7987 37.5439 49.3531 37.1667 48.8849L36.9385 48.5689Z" fill="black"/>
<path d="M36.4381 49.2449C36.0981 50.7766 36.1403 52.3685 36.561 53.88C36.6033 54.0252 36.6969 54.1499 36.8244 54.2312C37.2021 54.5059 37.6498 54.6682 38.1158 54.6992C38.5818 54.7303 39.0471 54.6289 39.458 54.4068C39.5797 54.3369 39.6734 54.2269 39.723 54.0956C39.7727 53.9643 39.7752 53.8198 39.7301 53.6869C39.4316 52.8091 38.8522 50.8953 39.3175 50.4213L37.0175 48.6656L36.4381 49.2449Z" fill="#EB459F"/>
<path d="M42.4605 44.6098L40.257 40.4136C40.2373 40.3707 40.2047 40.3351 40.1638 40.3115C40.123 40.2879 40.0758 40.2776 40.0288 40.2819L37.5708 40.5014C37.5341 40.5067 37.4991 40.5203 37.4684 40.5411C37.4377 40.5619 37.4121 40.5894 37.3935 40.6214C37.3749 40.6535 37.3639 40.6894 37.3611 40.7264C37.3584 40.7634 37.364 40.8005 37.3777 40.835L40.1868 47.3223C40.1868 47.3223 41.249 49.8242 39.704 50.0349C39.2655 50.0097 38.8376 49.89 38.4497 49.6839C38.0618 49.4778 37.723 49.1903 37.4567 48.841C37.246 48.6304 37.0792 48.5601 36.9387 48.5865C36.4559 48.6567 36.333 49.833 36.333 49.833C36.5349 48.9552 36.9475 49.0078 37.1143 49.2361C37.4128 49.754 38.7998 51.6853 41.9513 50.5441C45.2608 49.3239 42.5834 44.7414 42.4605 44.6098Z" fill="#FF78B9"/>
<path d="M27.1505 49.719C27.0283 51.3546 27.2159 52.9987 27.7035 54.5648C27.8062 54.8499 27.9929 55.0973 28.2389 55.2744C28.4849 55.4514 28.7787 55.5499 29.0817 55.5567L31.3554 55.6094C31.4531 55.6102 31.5491 55.5847 31.6336 55.5356C31.718 55.4865 31.7876 55.4156 31.8352 55.3303C31.8828 55.245 31.9065 55.1485 31.904 55.0509C31.9014 54.9533 31.8727 54.8581 31.8207 54.7754C31.2588 53.8976 30.6092 52.5545 31.1272 51.501L29.3714 51.7556L28.555 50.3247L27.7386 49.2713L27.1505 49.719Z" fill="#EB459F"/>
<path d="M27.5454 48.9904C27.9993 48.7433 28.5022 48.5995 29.0182 48.5691C29.5341 48.5388 30.0504 48.6227 30.5301 48.8149L31.1271 50.2194L30.6091 51.1412L29.5908 51.4484L28.7744 50.3248L27.958 49.2977L27.5454 48.9904Z" fill="black"/>
<path d="M33.2516 45.7863L31.0833 41.3092L27.4665 41.4057L30.1966 48.3496C30.1966 48.3496 31.2237 51.0359 29.8982 51.0359C29.0203 51.0359 29.0203 50.0878 28.3531 49.403C28.1512 49.1748 27.8527 48.8939 27.5455 48.9904C27.0627 49.1572 27.1241 50.3248 27.1241 50.3248C27.1812 50.0968 27.2927 49.8859 27.4489 49.7103C27.6508 49.5084 27.8615 49.7103 27.9581 50.0175C28.3619 51.1412 28.6428 52.5194 31.8821 51.6679C35.4111 50.7286 33.3569 45.9531 33.2516 45.7863Z" fill="#FF78B9"/>
<path d="M31.0831 41.3092L27.4663 41.4057L29.0728 45.4966L32.8651 44.9786L31.0831 41.3092Z" fill="black"/>
<path d="M40.2565 40.3962C40.2367 40.3533 40.2041 40.3177 40.1633 40.2941C40.1224 40.2705 40.0752 40.2602 40.0282 40.2645L37.5702 40.484C37.5335 40.4893 37.4985 40.5029 37.4678 40.5237C37.4371 40.5445 37.4115 40.572 37.3929 40.6041C37.3744 40.6361 37.3633 40.672 37.3605 40.709C37.3578 40.746 37.3635 40.7831 37.3771 40.8176L38.8343 44.1798L42.0122 43.7496L40.2565 40.3962Z" fill="black"/>
<path d="M37.2405 15.1796L38.4154 15.122C38.587 15.1135 38.7586 15.139 38.9203 15.1969C39.082 15.2547 39.2307 15.3439 39.358 15.4593C39.4853 15.5746 39.5886 15.7139 39.662 15.8692C39.7355 16.0245 39.7776 16.1927 39.786 16.3643L39.8721 18.1179L36.0843 18.3038L35.9982 16.5502C35.9812 16.2037 36.1025 15.8646 36.3355 15.6076C36.5685 15.3506 36.894 15.1966 37.2405 15.1796Z" fill="#FF78B9"/>
<path d="M32.3241 15.2073L33.4956 15.1001C33.841 15.0685 34.1849 15.1754 34.4515 15.3973C34.7182 15.6192 34.8858 15.938 34.9174 16.2834L35.0774 18.0318L31.3183 18.3759L31.1583 16.6275C31.1269 16.2851 31.2317 15.944 31.4499 15.6782C31.6681 15.4124 31.9821 15.2433 32.3241 15.2073Z" fill="#FF78B9"/>
<path d="M25.3207 14.955L28.532 14.6038C28.8769 14.5661 29.2226 14.667 29.4931 14.8841C29.7636 15.1013 29.9368 15.4171 29.9745 15.7619L30.1653 17.5072L24.3359 18.1446L24.1451 16.3993C24.1263 16.2271 24.1418 16.0528 24.1909 15.8867C24.2399 15.7205 24.3215 15.5657 24.4309 15.4314C24.5403 15.297 24.6752 15.1857 24.828 15.1039C24.9807 15.0221 25.1482 14.9715 25.3207 14.955Z" fill="#FF78B9"/>
<path d="M16.625 42.5379L20.4876 39.9044L50.1241 37.6746C48.3761 38.8814 46.49 39.8746 44.5058 40.633C42.3551 41.3353 16.625 42.5379 16.625 42.5379Z" fill="black"/>
<path d="M17.5643 41.95C17.4157 42.0515 17.2432 42.1126 17.0639 42.1271C16.8845 42.1417 16.7044 42.1093 16.5414 42.0331C16.3784 41.9569 16.238 41.8395 16.1342 41.6926C16.0303 41.5456 15.9665 41.3742 15.949 41.1951L14.404 24.2963C14.3679 23.8059 14.4352 23.3134 14.6016 22.8506C14.7679 22.3879 15.0296 21.9652 15.3697 21.61L18.3544 18.441C18.8459 17.9125 19.5018 17.5659 20.2154 17.4578C29.1053 16.1181 38.1236 15.8469 47.0779 16.6501C47.2657 16.669 47.4454 16.7364 47.5993 16.8456C47.7532 16.9549 47.876 17.1023 47.9558 17.2734C50.9581 24.068 50.7474 33.8913 50.5894 36.8672C50.5745 37.0635 50.5027 37.2512 50.3826 37.4072C50.2625 37.5631 50.0994 37.6806 49.9134 37.7451C49.8307 37.7719 49.7454 37.7895 49.6588 37.7978L21.7429 39.7993C20.9033 39.8601 20.096 40.1484 19.4078 40.6332L17.5643 41.95Z" fill="#FFE75C"/>
<path d="M27.6596 9.25825C27.6596 9.25825 24.9031 7.44108 23.6654 8.56474C22.6207 9.53039 23.797 10.6277 23.797 10.6277L24.947 11.1105C24.947 11.1105 27.5455 10.3029 27.6596 9.25825Z" fill="#57F287"/>
<path d="M26.7821 10.9176C26.7453 10.9183 26.709 10.9108 26.6755 10.8956C26.6421 10.8804 26.6125 10.858 26.5889 10.8298C23.2706 6.9058 19.8557 8.89854 19.7153 8.98632C19.6872 9.00938 19.6544 9.02615 19.6193 9.03549C19.5841 9.04483 19.5473 9.04652 19.5115 9.04046C19.4756 9.0344 19.4415 9.02073 19.4113 9.00036C19.3812 8.97999 19.3558 8.95339 19.3368 8.92237C19.3178 8.89135 19.3057 8.85661 19.3012 8.82051C19.2968 8.78441 19.3001 8.74777 19.311 8.71307C19.322 8.67837 19.3402 8.64642 19.3645 8.61935C19.3888 8.59229 19.4186 8.57074 19.4519 8.55617C19.4519 8.55617 23.3672 6.22984 26.9752 10.4962C27.0229 10.544 27.0497 10.6087 27.0497 10.6762C27.0497 10.7437 27.0229 10.8084 26.9752 10.8562C26.9492 10.8795 26.9186 10.8971 26.8852 10.9077C26.8519 10.9183 26.8168 10.9217 26.7821 10.9176Z" fill="black"/>
<path d="M23.7793 10.6279C24.3694 10.8493 25.0177 10.8611 25.6154 10.6613C26.2132 10.4615 26.7241 10.0623 27.0625 9.5306C28.3968 7.82755 30.1789 5.6329 32.6808 5.51878C32.7576 5.49679 32.8398 5.50386 32.9117 5.53865C32.9836 5.57344 33.0401 5.6335 33.0706 5.70736C33.101 5.78122 33.1031 5.8637 33.0765 5.93903C33.05 6.01437 32.9966 6.07727 32.9266 6.11573C32.3011 6.74528 31.7902 7.47903 31.4167 8.28404C30.1701 10.7157 27.2907 13.3229 23.7793 10.6279Z" fill="#29CC7A"/>
<path d="M28.3356 39.3515L49.65 37.824C49.7365 37.8158 49.8219 37.7981 49.9046 37.7714C50.0906 37.7069 50.2536 37.5894 50.3737 37.4334C50.4938 37.2775 50.5657 37.0898 50.5805 36.8935C50.7153 34.1844 50.6831 31.4696 50.484 28.7645L48.6405 28.9576C48.1296 29.0119 47.6368 29.1776 47.1969 29.443C46.7571 29.7085 46.3808 30.0672 46.0947 30.4939L44.4619 32.9168C44.1612 33.3638 43.7618 33.7356 43.2945 34.0036C42.8272 34.2715 42.3045 34.4283 41.7668 34.4618L31.5661 35.1466C31.0643 35.1767 30.5748 35.3142 30.1307 35.5499C29.6866 35.7855 29.2983 36.1137 28.992 36.5124C28.6857 36.9111 28.4686 37.3708 28.3554 37.8606C28.2421 38.3505 28.2354 38.8589 28.3356 39.3515Z" fill="#FFC619"/>
<path d="M21.2598 28.8082C20.6827 26.1602 20.638 23.4238 21.1281 20.7583V20.6354H21.2422C26.0807 19.7565 30.985 19.2896 35.9024 19.2396C37.9567 19.2271 40.0095 19.3503 42.0475 19.6083H42.1616V19.7048C43.4257 22.5667 43.4959 27.0437 43.5047 27.2369V27.43H43.3116C36.0214 27.4772 28.7414 27.9815 21.5143 28.9399H21.3388L21.2598 28.8082Z" fill="black"/>
<path d="M35.9377 19.4152C37.9919 19.4029 40.0447 19.526 42.0827 19.7839C43.3556 22.6457 43.417 27.2369 43.417 27.2369C36.0763 27.2817 28.7459 27.7948 21.4705 28.7732C20.9002 26.1508 20.8585 23.441 21.3476 20.8022C26.1716 19.9264 31.0614 19.4624 35.964 19.4152H35.9377ZM35.964 19.029C31.0352 19.0834 26.1196 19.5503 21.2686 20.4248L21.0228 20.4774L20.9702 20.7144C20.4632 23.4077 20.505 26.1755 21.0931 28.8522L21.1721 29.2034L21.532 29.1507C28.7847 28.1816 36.0913 27.6714 43.4082 27.6232H43.7945V27.2369C43.7945 27.0438 43.7155 22.5228 42.4338 19.6259L42.346 19.4328H42.1266C40.0881 19.1803 38.0356 19.0572 35.9816 19.0641L35.964 19.029Z" fill="black"/>
<path d="M39.2209 27.316C35.7095 27.4213 30.5477 27.6759 25.3156 28.2641C24.7727 28.3272 24.2226 28.2748 23.7014 28.1105C23.1801 27.9462 22.6994 27.6736 22.2908 27.3106C21.8822 26.9476 21.5549 26.5023 21.3304 26.004C21.1058 25.5057 20.9891 24.9656 20.9878 24.4191V24.1206C20.9969 23.1931 21.3372 22.2995 21.9473 21.6008C22.5574 20.9022 23.3971 20.4446 24.3149 20.3107C29.2838 19.5572 34.3145 19.2926 39.3351 19.5206C40.1814 19.5822 40.9839 19.9208 41.6186 20.4841C42.2533 21.0474 42.6848 21.804 42.8465 22.637V22.7336C42.9473 23.2778 42.9306 23.8372 42.7974 24.3744C42.6642 24.9115 42.4176 25.414 42.0742 25.848C41.7308 26.282 41.2985 26.6376 40.8064 26.8908C40.3143 27.144 39.7737 27.289 39.2209 27.316Z" fill="#7196FF"/>
<path d="M25.4738 24.1732C25.5221 24.0259 25.5869 23.8846 25.6669 23.7518C25.7447 23.6149 25.839 23.4881 25.9479 23.3744C26.1884 23.1049 26.5195 22.9331 26.8784 22.8915C27.0673 22.8686 27.2589 22.8865 27.4402 22.9442C27.6081 22.9992 27.7654 23.0824 27.9055 23.19C28.1501 23.373 28.356 23.6028 28.5112 23.866C28.5529 23.9419 28.5634 24.0311 28.5404 24.1147C28.5175 24.1983 28.4629 24.2696 28.3883 24.3137C28.3346 24.3481 28.2721 24.3664 28.2083 24.3664C28.1445 24.3664 28.0821 24.3481 28.0284 24.3137C27.8515 24.1652 27.6637 24.0302 27.4665 23.9098C27.3174 23.8228 27.1476 23.7773 26.9749 23.7782C26.8002 23.8077 26.6365 23.8834 26.5009 23.9976C26.3279 24.1399 26.1692 24.2987 26.0269 24.4717C25.9679 24.5285 25.8893 24.5603 25.8074 24.5603C25.7255 24.5603 25.6468 24.5285 25.5879 24.4717C25.5434 24.4372 25.5091 24.3911 25.489 24.3384C25.4689 24.2858 25.4636 24.2286 25.4738 24.1732Z" fill="black"/>
<path d="M39.1245 23.3305C39.1661 23.185 39.2282 23.046 39.3089 22.9179C39.3923 22.788 39.4895 22.6673 39.5986 22.558C39.7213 22.4379 39.8639 22.3399 40.0199 22.2683C40.1892 22.1903 40.3734 22.15 40.5598 22.15C40.7462 22.15 40.9304 22.1903 41.0997 22.2683C41.2445 22.3384 41.3777 22.4302 41.4947 22.5405C41.7046 22.7359 41.8772 22.9679 42.0039 23.2252C42.0408 23.3034 42.0458 23.3929 42.018 23.4748C41.9901 23.5567 41.9316 23.6246 41.8547 23.6641C41.7976 23.6915 41.7336 23.7012 41.671 23.6918C41.6084 23.6824 41.55 23.6544 41.5035 23.6115C41.34 23.4601 41.167 23.3193 40.9856 23.1901C40.8569 23.0914 40.7063 23.0251 40.5466 22.997C40.3975 22.9876 40.2503 23.0346 40.1341 23.1286C39.968 23.2534 39.8177 23.3978 39.6863 23.5588C39.6289 23.6151 39.5517 23.6466 39.4713 23.6466C39.3908 23.6466 39.3136 23.6151 39.2562 23.5588C39.2178 23.5339 39.1858 23.5002 39.1629 23.4605C39.14 23.4208 39.1269 23.3763 39.1245 23.3305Z" fill="black"/>
<path d="M36.9913 20.9427C36.1134 20.6618 33.9451 20.3019 30.1966 21.1271C29.9349 21.197 29.705 21.3545 29.5453 21.5733C29.3855 21.7922 29.3056 22.0591 29.3188 22.3298C29.3188 22.9179 29.3715 23.7168 29.4592 24.5595C29.4726 24.7764 29.5287 24.9885 29.6243 25.1836C29.7199 25.3788 29.8531 25.5531 30.0162 25.6967C30.1793 25.8403 30.3692 25.9502 30.5749 26.0202C30.7806 26.0902 30.9981 26.1188 31.215 26.1045C32.9345 25.9146 34.6649 25.8413 36.3943 25.8851C36.6232 25.8764 36.8479 25.8214 37.0549 25.7234C37.2619 25.6254 37.4469 25.4865 37.5987 25.315C37.7505 25.1435 37.8659 24.943 37.9381 24.7257C38.0102 24.5083 38.0375 24.2786 38.0184 24.0504C38.0113 23.2858 37.926 22.5239 37.7638 21.7767C37.7175 21.583 37.6221 21.4046 37.4868 21.2585C37.3515 21.1124 37.1809 21.0037 36.9913 20.9427Z" fill="#BACFFF"/>
<path d="M31.6186 24.6823C31.7568 24.623 31.901 24.5788 32.0487 24.5506C32.1915 24.5021 32.3384 24.4668 32.4877 24.4453C32.7776 24.3895 33.0755 24.3895 33.3655 24.4453C33.427 24.4637 33.4793 24.5047 33.5119 24.56C33.5444 24.6154 33.5549 24.681 33.5411 24.7437C33.5316 24.7853 33.5112 24.8235 33.4818 24.8544C33.4525 24.8853 33.4153 24.9077 33.3743 24.9193C33.2414 24.956 33.1066 24.9853 32.9705 25.0071L32.5754 25.0685H32.1804H31.7766C31.7466 25.0685 31.7169 25.0626 31.6892 25.0512C31.6616 25.0397 31.6364 25.0229 31.6152 25.0017C31.594 24.9805 31.5772 24.9553 31.5657 24.9276C31.5543 24.8999 31.5483 24.8703 31.5483 24.8403C31.5501 24.7805 31.5753 24.7237 31.6186 24.6823Z" fill="#5C86FF"/>
<path d="M34.9458 24.3224C35.0712 24.2669 35.2044 24.2314 35.3408 24.2171C35.4751 24.2039 35.6103 24.2039 35.7446 24.2171C36.0254 24.2253 36.2974 24.3169 36.5259 24.4804C36.5522 24.498 36.5746 24.5207 36.5919 24.5472C36.6093 24.5736 36.6212 24.6032 36.6269 24.6343C36.6326 24.6654 36.6321 24.6973 36.6253 24.7281C36.6185 24.759 36.6056 24.7882 36.5874 24.814C36.5647 24.8466 36.5345 24.8731 36.4993 24.8915C36.4642 24.9098 36.4251 24.9194 36.3855 24.9194C36.2626 24.9194 36.1572 24.9194 36.0519 24.9194H35.7183H35.3759C35.262 24.9285 35.1475 24.9285 35.0335 24.9194C35.0033 24.9141 34.9744 24.9028 34.9487 24.8862C34.9229 24.8696 34.9007 24.8479 34.8835 24.8225C34.8663 24.7971 34.8544 24.7685 34.8485 24.7383C34.8426 24.7082 34.8428 24.6772 34.8492 24.6472C34.8339 24.6196 34.8242 24.5893 34.8207 24.5579C34.8173 24.5265 34.8202 24.4948 34.8292 24.4645C34.8382 24.4343 34.8531 24.4061 34.8731 24.3817C34.8931 24.3573 34.9178 24.3371 34.9458 24.3224Z" fill="#5C86FF"/>
<path d="M41.9249 19.5819C41.9249 19.5819 27.6597 18.5636 21.1284 22.6017L22.1204 20.4773C22.1204 20.4773 34.9635 18.2826 41.9249 19.5819Z" fill="black"/>
<path d="M46.1561 22.3738C47.2844 22.3013 48.4163 22.3013 49.5446 22.3738C49.5007 22.1982 49.4656 22.0226 49.4217 21.847C48.3225 21.7808 47.2202 21.7808 46.121 21.847C46.0875 21.8493 46.0548 21.8581 46.0248 21.873C45.9947 21.8879 45.9679 21.9086 45.9459 21.9339C45.9239 21.9591 45.9071 21.9885 45.8964 22.0203C45.8858 22.0521 45.8816 22.0857 45.8839 22.1192C45.8851 22.1538 45.893 22.1878 45.9073 22.2193C45.9216 22.2508 45.942 22.2792 45.9672 22.3029C45.9925 22.3265 46.0222 22.3449 46.0546 22.3571C46.087 22.3693 46.1215 22.3749 46.1561 22.3738Z" fill="#FFC619"/>
<path d="M46.4284 23.3217C46.3609 23.3217 46.2961 23.3486 46.2484 23.3963C46.2007 23.444 46.1738 23.5088 46.1738 23.5763C46.1738 23.6438 46.2007 23.7086 46.2484 23.7563C46.2961 23.8041 46.3609 23.8309 46.4284 23.8309C47.5511 23.7637 48.6767 23.7637 49.7994 23.8309C49.7994 23.6553 49.7379 23.4885 49.7028 23.313C48.6121 23.2534 47.5188 23.2564 46.4284 23.3217Z" fill="#FFC619"/>
<path d="M49.9924 24.7876C48.9078 24.7213 47.8201 24.7213 46.7355 24.7876C46.668 24.7876 46.6033 24.8145 46.5555 24.8622C46.5078 24.9099 46.481 24.9747 46.481 25.0422C46.481 25.1097 46.5078 25.1745 46.5555 25.2222C46.6033 25.27 46.668 25.2968 46.7355 25.2968C47.8349 25.2346 48.9369 25.2346 50.0363 25.2968L49.9924 24.7876Z" fill="#FFC619"/>
<path d="M24.9556 37.1304L23.6213 31.4419H23.4282C20.8935 31.4151 18.3648 31.6921 15.8961 32.2671L15.5977 32.3373L18.0908 38.1926L18.3102 38.1224C20.3809 37.5694 22.5067 37.2485 24.6484 37.1655L24.9556 37.1304ZM18.3805 37.5518L16.3087 32.6797C18.5741 32.176 20.888 31.9228 23.2087 31.9247L24.3148 36.6476C22.3105 36.7409 20.3216 37.044 18.3805 37.5518Z" fill="#FFC619"/>
<path d="M18.556 18.2477C16.3701 26.3065 19.3548 36.4633 20.2502 39.1847C20.3194 39.3901 20.32 39.6124 20.2519 39.8182C20.1839 40.0241 20.0508 40.2022 19.8728 40.3259L16.8441 42.4591C16.793 42.4972 16.7336 42.5229 16.6708 42.5342C16.608 42.5455 16.5435 42.5421 16.4822 42.5242C16.421 42.5063 16.3647 42.4745 16.3178 42.4312C16.271 42.3879 16.2348 42.3344 16.2121 42.2747C15.3342 40.0889 12.0159 31.0293 14.0613 23.3744C14.1745 22.9747 14.3857 22.6095 14.6758 22.3122L18.556 18.2477Z" fill="#FFC619"/>
<path d="M16.7829 26.5874C16.7866 26.4143 16.7531 26.2424 16.6847 26.0833C16.6164 25.9242 16.5147 25.7817 16.3866 25.6652C16.2585 25.5487 16.1069 25.4611 15.9421 25.4082C15.7772 25.3552 15.6029 25.3382 15.431 25.3584L11.9195 25.6832C11.7394 25.6986 11.5642 25.7495 11.4038 25.833C11.2435 25.9166 11.1013 26.031 10.9854 26.1697C10.8695 26.3084 10.7823 26.4687 10.7286 26.6414C10.675 26.814 10.6561 26.9956 10.673 27.1755L10.9802 30.4851L13.6665 30.2393L13.6138 28.8698C13.6054 28.7877 13.6136 28.7047 13.6379 28.6258C13.6623 28.5469 13.7023 28.4737 13.7555 28.4106C13.8088 28.3475 13.8742 28.2958 13.9479 28.2586C14.0216 28.2213 14.102 28.1993 14.1844 28.1938L15.4749 28.0709C15.8342 28.0207 16.1636 27.8434 16.4035 27.5713C16.6434 27.2991 16.778 26.9501 16.7829 26.5874Z" fill="#D11583"/>
<path d="M12.4253 31.0416C13.1688 30.973 13.7416 30.5926 13.7046 30.1919C13.6677 29.7912 13.035 29.5219 12.2915 29.5905C11.548 29.6591 10.9753 30.0395 11.0122 30.4402C11.0492 30.8409 11.6819 31.1102 12.4253 31.0416Z" fill="black"/>
<path d="M18.5122 32.2847C18.5122 32.1179 18.4508 31.9423 18.4157 31.7668C16.8013 32.4618 15.3169 33.4266 14.0264 34.6198C14.0264 34.8305 14.1054 35.0324 14.1493 35.2343C15.4087 33.9898 16.888 32.9897 18.5122 32.2847Z" fill="#FFA027"/>
<path d="M19.7584 37.7187C19.7145 37.5607 19.6706 37.3939 19.618 37.2271C18.0766 37.9111 16.6449 38.8193 15.3691 39.9221L15.5447 40.4488C16.8045 39.3327 18.2249 38.4123 19.7584 37.7187Z" fill="#F79414"/>
</svg>
