
<svg width="60" height="60" viewBox="0 0 60 60" fill="none" xmlns="http://www.w3.org/2000/svg">
<g clip-path="url(#clip0_1528_46667)">
<path d="M22.3528 11.8389C24.4784 11.4038 26.0868 11.1437 28.4837 11.3758C29.2949 11.4488 30.0611 11.7806 30.6692 12.3224C31.2774 12.8642 31.6951 13.5871 31.8609 14.3845L33.6128 22.5431L32.797 22.7182L32.2241 22.1371L30.8445 15.7123C30.6889 14.971 30.2888 14.3034 29.7084 13.8167C29.128 13.3299 28.4008 13.0523 27.6437 13.0284C26.2414 12.9955 24.8386 13.0755 23.4491 13.2677L22.092 11.9162L22.3528 11.8389Z" fill="#BDE9FF"/>
<path d="M35.6434 29.2125C35.4371 29.2568 35.2242 29.26 35.0167 29.222C34.8092 29.184 34.6112 29.1055 34.4341 28.991C34.2569 28.8765 34.1041 28.7282 33.9842 28.5546C33.8644 28.381 33.7799 28.1855 33.7356 27.9792L31.9705 19.7595C31.8811 19.343 31.9608 18.908 32.1921 18.5502C32.4234 18.1925 32.7873 17.9412 33.2038 17.8518C33.7285 17.7391 34.2765 17.8395 34.7272 18.1308C35.1779 18.4222 35.4944 18.8807 35.6071 19.4054L37.197 26.8092C37.2528 27.069 37.2568 27.3373 37.209 27.5987C37.1611 27.8601 37.0622 28.1095 36.9179 28.3326C36.7737 28.5558 36.5868 28.7484 36.3682 28.8993C36.1495 29.0503 35.9032 29.1567 35.6434 29.2125Z" fill="black"/>
<path d="M-12.8576 33.0767C-13.3661 38.3505 -12.0798 43.6417 -9.20703 48.0936C-6.33426 52.5455 -2.04314 55.8976 2.97174 57.6074C4.31578 54.9743 4.94459 52.0344 4.79523 49.0819C4.64587 46.1294 3.72359 43.2679 2.12069 40.7839C0.517802 38.2999 -1.70946 36.2806 -4.33813 34.9279C-6.96681 33.5753 -9.90467 32.9369 -12.8576 33.0767Z" fill="#039C78"/>
<path d="M-11.185 44.3461C-9.16043 49.2195 -5.55516 53.27 -0.949349 55.846C3.65647 58.4219 8.99498 59.3733 14.2071 58.5472C19.4193 57.7211 24.2019 55.1654 27.7854 51.2915C31.369 47.4176 33.545 42.4508 33.9633 37.1902L7.65046 32.3001C1.86014 31.9646 -7.76278 33.4549 -11.185 44.3461Z" fill="url(#paint0_linear_1528_46667)"/>
<path d="M-8.91265 39.5268C-6.67761 36.1237 0.933686 32.4196 8.50578 35.7865L10.4612 32.5714C9.31114 28.2096 8.27519 28.1547 7.23124 29.8511C6.18729 31.5475 5.63019 30.3443 3.79199 28.2426C1.95379 26.1409 0.184946 26.0514 -0.492854 28.7573C-1.17065 31.4633 -0.887983 31.4879 -1.96186 31.3558C-3.03573 31.2237 -5.08451 30.7248 -6.68281 30.8333C-8.2811 30.9418 -8.54235 33.3023 -8.04043 34.9441C-7.53851 36.586 -7.97997 36.6168 -8.8455 36.4613C-9.71103 36.3057 -9.696 37.3693 -8.91265 39.5268Z" fill="#FA80BA"/>
<path d="M-7.10783 31.8417C-5.39927 34.0352 -4.93251 35.2152 -4.93251 35.2152M2.36798 33.8395C2.25247 31.7468 1.85861 29.6787 1.19681 27.69L2.36798 33.8395Z" stroke="#FF5CB4" stroke-width="1.34482" stroke-miterlimit="10" stroke-linecap="round"/>
<path d="M56.9058 25.3934C57.1175 23.0009 57.3127 22.9164 52.7426 24.0898C48.5352 25.1639 43.206 26.479 38.3693 27.9017C37.4851 24.9764 36.2725 23.9992 34.8586 22.6813C34.211 17.6782 32.2887 13.0981 27.1643 12.9823C22.0399 12.8665 14.8079 14.1635 10.4162 16.9628C6.02451 19.7622 8.83791 26.3059 10.342 30.8263C10.342 30.8263 6.41346 33.0995 5.72042 37.6224C5.15237 41.4356 6.6869 45.5015 11.2398 48.3218C18.5502 52.8543 24.7844 52.177 30.412 50.2644C34.781 48.7502 36.3091 44.8374 36.2275 41.377C45.1086 42.6918 49.3358 36.9406 50.6737 34.3276C52.2634 31.2978 55.1229 29.809 56.7877 28.6193C58.4526 27.4297 59.0743 26.5494 56.9058 25.3934Z" fill="#2AD17D"/>
<path d="M11.3784 8.6264C9.62286 8.89671 8.03247 10.4331 9.9614 13.4541C8.04552 13.6735 6.39244 15.1166 8.37955 17.9118L16.3765 13.1221C14.8072 9.4904 13.1384 8.3765 11.3784 8.6264Z" fill="#FA80BA"/>
<path d="M14.4218 24.6799C13.9695 22.5735 11.8952 21.2325 9.78871 21.6849C7.68224 22.1372 6.3413 24.2115 6.79364 26.318L8.08525 32.3329C8.53759 34.4393 10.6119 35.7803 12.7184 35.3279C14.8249 34.8756 16.1658 32.8013 15.7135 30.6948L14.4218 24.6799Z" fill="black"/>
<path d="M23.5127 11.8677L23.7755 13.0914C20.085 13.3932 15.6299 14.3072 12.1716 15.9886C11.496 16.3269 10.9513 16.8794 10.6226 17.5598C10.294 18.2403 10.1998 19.0104 10.3549 19.7499L11.8791 26.8478L7.43272 27.8026L5.84722 20.4192C5.61902 19.3596 5.77317 18.2535 6.28237 17.2967C6.79158 16.3399 7.62298 15.5942 8.62931 15.1917C14.9881 12.61 19.6736 12.0733 23.5127 11.8677Z" fill="white"/>
<path d="M16.5125 12.752C14.3913 13.2075 12.8223 13.6511 10.7276 14.8264C10.0225 15.2308 9.46398 15.8487 9.13254 16.5909C8.8011 17.3331 8.71384 18.1614 8.88333 18.9564L10.6353 27.1149L11.4511 26.9397L11.7393 26.195L10.3553 19.7498C10.2002 19.0102 10.2943 18.2401 10.623 17.5597C10.9516 16.8793 11.4963 16.3268 12.172 15.9885C13.4393 15.3895 14.7527 14.8935 16.0995 14.505L16.7776 12.6951L16.5125 12.752Z" fill="#BDE9FF"/>
<path d="M40.1184 28.5929C35.1942 29.9063 29.7573 31.4152 27.776 31.926C25.7947 32.4368 24.6248 32.752 24.484 33.7851C24.3431 34.8182 27.1068 34.3741 30.602 33.8582C34.0971 33.3424 41.8594 31.6329 46.3071 30.4858C49.5991 29.6611 52.8475 28.6716 56.0401 27.5209C58.0753 26.7639 55.7786 25.8061 55.7786 25.8061C55.7786 25.8061 56.3025 24.3707 55.1296 24.4732C53.9568 24.5757 40.1184 28.5929 40.1184 28.5929Z" fill="#039C78"/>
<path d="M35.3253 31.6063C34.8898 28.5847 35.997 28.1762 36.6573 28.8666C37.0777 29.2884 37.4273 29.7753 37.6924 30.3086C37.7922 30.2237 37.9115 30.1648 38.0397 30.1373C38.1678 30.1098 38.3008 30.1145 38.4267 30.1509C38.5786 30.1976 38.7162 30.282 38.8266 30.3964C38.937 30.5108 39.0166 30.6513 39.0578 30.8048L35.3253 31.6063ZM28.4764 32.7997C28.7479 30.5864 30.2997 30.6585 31.4202 30.9087C31.7279 30.9636 32.0137 31.1049 32.2442 31.316C32.4747 31.5272 32.6403 31.7996 32.7218 32.1014L28.4764 32.7997ZM26.1949 33.2043C26.2901 30.9648 26.8918 30.9849 27.2506 31.7614C27.6094 32.5378 27.7625 32.953 27.7625 32.953L26.1949 33.2043Z" fill="white"/>
<path d="M50.9355 27.6994C51.6571 25.1974 52.1536 24.4293 52.9405 24.5164C53.7273 24.6035 54.0997 26.6358 54.0997 26.6358L50.9355 27.6994ZM46.8608 28.8944C47.1215 25.3392 48.4169 25.5091 48.9431 25.9722C49.4692 26.4353 50.2144 27.9182 50.2144 27.9182L46.8608 28.8944Z" fill="white"/>
<path d="M23.7717 25.5953C25.0611 25.3398 25.5024 25.0103 25.5313 24.4494C25.5602 23.8884 24.4627 22.9506 22.6823 23.2049C20.9019 23.4591 19.8941 24.529 19.8567 25.6466C19.8193 26.7641 20.3423 26.4171 21.5325 26.0975C22.2668 25.8803 23.0149 25.7125 23.7717 25.5953ZM30.9716 24.0493C29.9154 24.2974 29.4797 24.1563 29.2434 23.6522C29.0072 23.1482 29.4597 21.8775 30.8612 21.4485C32.2627 21.0196 33.4169 21.6252 33.8486 22.642C34.2803 23.6588 33.763 23.5352 32.7913 23.6799C32.1755 23.7524 31.5669 23.876 30.9716 24.0493Z" fill="white"/>
<path d="M7.32075 23.4096L8.23859 23.2125C8.96345 23.0568 9.72046 23.1955 10.3431 23.598C10.9657 24.0005 11.4029 24.6338 11.5586 25.3587L12.8244 31.2532C12.98 31.9781 12.8413 32.7351 12.4388 33.3577C12.0364 33.9803 11.403 34.4176 10.6782 34.5732L9.76032 34.7703C9.30766 34.8675 8.84029 34.8746 8.38488 34.7912C7.92948 34.7078 7.49496 34.5355 7.10615 34.2841C6.71733 34.0328 6.38183 33.7073 6.1188 33.3263C5.85577 32.9453 5.67036 32.5162 5.57316 32.0635L4.61397 27.5968C4.51677 27.1441 4.50968 26.6767 4.5931 26.2213C4.67652 25.7659 4.84883 25.3314 5.10017 24.9426C5.35152 24.5538 5.67699 24.2183 6.058 23.9552C6.43901 23.6922 6.86809 23.5068 7.32075 23.4096Z" fill="#BDE9FF"/>
<path d="M7.09639 23.4578L9.72751 22.8928L11.6021 31.6224C11.7519 32.3202 11.6184 33.049 11.231 33.6483C10.8435 34.2477 10.2338 34.6687 9.53596 34.8185C8.68127 35.002 7.78868 34.8385 7.05454 34.3639C6.32041 33.8894 5.80487 33.1426 5.62134 32.2879L4.56579 27.3724C4.38226 26.5177 4.54577 25.6251 5.02035 24.891C5.49493 24.1568 6.2417 23.6413 7.09639 23.4578Z" fill="white"/>
<path d="M26.1979 17.8196C24.709 18.1394 24.1114 17.841 22.7486 16.6614C21.3858 15.4818 19.6366 13.5957 16.1343 14.4758C13.1827 11.7597 13.3223 7.73977 15.1833 5.37715C17.0444 3.01453 21.5927 2.03782 23.8551 4.62449C25.065 5.98628 25.7753 7.60471 25.832 10.7504C27.631 9.78798 28.6456 10.9357 28.7104 12.6287C28.7753 14.3217 28.0335 17.4255 26.1979 17.8196Z" fill="#FA80BA"/>
<path d="M7.44107 27.0538L7.42067 27.0582C7.00389 27.1477 6.73857 27.5581 6.82807 27.9749L7.44256 30.8365C7.53206 31.2533 7.94248 31.5186 8.35927 31.4291L8.37967 31.4247C8.79646 31.3352 9.06178 30.9248 8.97228 30.508L8.35779 27.6464C8.26829 27.2296 7.85786 26.9643 7.44107 27.0538Z" fill="#FF78B9"/>
<path d="M31.3909 22.2305C31.7423 22.0934 32.1296 22.0778 32.4909 22.1863M22.4821 24.1649C22.9792 24.0005 23.5061 23.9456 24.0264 24.004" stroke="black" stroke-width="1.34482" stroke-miterlimit="10" stroke-linecap="round"/>
<path d="M24.5613 20.5392C22.2434 20.973 21.0036 21.2605 19.0005 21.968M32.8875 19.0713C31.4305 19.0428 30.5651 19.186 29.015 19.5189" stroke="black" stroke-width="1.34482" stroke-miterlimit="10" stroke-linecap="round"/>
<path d="M55.3032 26.1851C50.9577 27.9077 39.8829 31.182 25.7551 33.2556" stroke="black" stroke-width="1.34482" stroke-miterlimit="10" stroke-linecap="round"/>
<path d="M35.6924 41.3638C34.8001 43.369 33.3716 45.3613 30.2119 46.744C25.4863 48.7829 21.9177 44.6844 20.7228 40.9083C20.2253 39.2869 19.7874 37.546 20.9159 39.2239C23.0882 42.3847 26.4203 42.2026 28.8139 41.6246C31.2075 41.0466 32.3411 41.0592 35.6924 41.3638Z" fill="#039C78"/>
<path d="M10.2274 49.8618C11.8579 50.3011 13.6864 49.9725 13.6864 49.9725M6.27404 35.3269C5.68291 36.7109 5.42121 38.2133 5.50954 39.7157" stroke="black" stroke-width="0.67241" stroke-miterlimit="10" stroke-linecap="round"/>
<path d="M25.6672 39.047C26.0111 38.4875 25.4863 37.54 24.495 36.9306C23.5037 36.3212 22.4212 36.2807 22.0773 36.8402C21.7334 37.3996 22.2582 38.3472 23.2495 38.9566C24.2409 39.566 25.3233 39.6065 25.6672 39.047Z" fill="#03AB83"/>
<path d="M22.6491 16.1923C22.7985 11.1248 21.6991 6.00529 18.0503 4.91119M25.5798 17.718C26.6383 15.8905 26.8383 13.5431 26.7386 11.9856L25.5798 17.718Z" stroke="#EB459F" stroke-width="1.34482" stroke-miterlimit="10" stroke-linecap="round"/>
<path d="M9.12358 42.3617C9.57437 42.1857 9.70889 41.4515 9.42405 40.7216C9.13921 39.9918 8.54287 39.5428 8.09209 39.7187C7.64131 39.8946 7.50678 40.6289 7.79162 41.3587C8.07646 42.0886 8.6728 42.5376 9.12358 42.3617Z" fill="#57F287"/>
<path d="M23.4331 33.7548L24.1755 32.1445" stroke="black" stroke-width="1.34482" stroke-miterlimit="10" stroke-linecap="round"/>
<path d="M17.8181 51.6244L17.6287 51.5371L17.7699 51.4001C17.9272 51.2383 18.0801 51.0561 18.0203 50.8769C17.9605 50.6977 17.7507 50.6147 17.5496 50.5726L17.3441 50.51C17.3782 50.4485 17.4248 50.3949 17.481 50.3526C17.6135 50.1748 17.746 49.997 17.6862 49.8178C17.6264 49.6386 17.4005 49.5804 17.1791 49.5426L16.9984 49.4961L17.0901 49.327C17.2226 49.1492 17.3551 48.9714 17.2705 48.7762C17.1859 48.581 16.9688 48.5636 16.7677 48.5214C16.7014 48.5273 16.6345 48.5199 16.571 48.4997L16.6627 48.3306C16.7953 48.1528 16.903 47.959 16.8228 47.7842C16.7426 47.6093 16.5211 47.5716 16.304 47.5542C16.2418 47.5478 16.1809 47.5321 16.1233 47.5076L16.215 47.3386C16.3271 47.1651 16.4553 46.9669 16.3751 46.7921C16.2948 46.6173 16.0573 46.6043 15.8563 46.5621L15.6595 46.5404L15.7513 46.3713C15.8838 46.1935 15.9915 45.9997 15.9113 45.8249C15.8311 45.6501 15.6096 45.6123 15.3925 45.5949L15.2118 45.5483C15.2439 45.4988 15.2715 45.4288 15.3079 45.3997C15.3788 45.3282 15.432 45.2412 15.4633 45.1456C15.4946 45.05 15.5032 44.9484 15.4883 44.8489C15.4081 44.674 15.1867 44.6363 14.9856 44.5941L14.8049 44.5475L14.9214 44.3945C15.0379 44.2415 15.1908 44.0593 15.131 43.8801C15.0712 43.7009 14.8453 43.6427 14.6398 43.5802L14.4751 43.5088L14.596 43.3762C14.7373 43.2392 14.8946 43.0774 14.8552 42.8938C14.8157 42.7103 14.6263 42.6229 14.4368 42.5356L14.2678 42.4439L14.4178 42.3476L14.6159 42.1771C14.6576 42.1462 14.6888 42.1031 14.7049 42.0537C14.7211 42.0044 14.7215 41.9512 14.7061 41.9016C14.6926 41.8504 14.6653 41.8038 14.6273 41.7669C14.5893 41.7299 14.542 41.704 14.4904 41.6919C14.1538 41.6149 14.0837 41.2885 13.869 39.9904L13.8558 39.9292C13.6308 38.484 12.503 34.8215 11.8309 33.8777C11.817 33.8565 11.7989 33.8383 11.7778 33.8243C11.7567 33.8103 11.733 33.8006 11.7081 33.796C11.6832 33.7914 11.6576 33.7919 11.6329 33.7974C11.6081 33.803 11.5848 33.8134 11.5642 33.8282C11.5256 33.8595 11.4993 33.9036 11.4903 33.9524C11.4812 34.0013 11.4899 34.0519 11.5148 34.0949C12.0951 34.9091 13.2418 38.4608 13.4843 39.9877L13.4975 40.0489C13.6991 41.2858 13.7882 41.8001 14.2166 42.0068L14.1962 42.0111C14.0098 42.1365 13.8233 42.2619 13.8467 42.4703C13.8701 42.6786 14.0596 42.7659 14.2694 42.8489L14.4589 42.9362L14.322 43.0937C14.1647 43.2554 14.0074 43.4173 14.0468 43.6008C14.0862 43.7844 14.3165 43.863 14.5423 43.9211L14.7274 43.9881L14.6109 44.1411C14.4784 44.3189 14.3255 44.5011 14.4057 44.6759C14.4859 44.8507 14.6914 44.9133 14.9129 44.9511C14.9751 44.9575 15.036 44.9732 15.0936 44.9976C15.0746 45.0545 15.0416 45.1057 14.9975 45.1463C14.8693 45.3445 14.7368 45.5223 14.817 45.6971C14.8972 45.8719 15.1187 45.9097 15.3402 45.9475L15.5369 45.9693C15.5059 46.031 15.4683 46.0891 15.4248 46.1427C15.3171 46.3365 15.1846 46.5143 15.2852 46.6848C15.3858 46.8552 15.5869 46.8974 15.7836 46.9191L15.9846 46.9613L15.8929 47.1304C15.7808 47.3038 15.6527 47.502 15.7329 47.6768C15.8131 47.8516 16.0302 47.869 16.2517 47.9068L16.4484 47.9286L16.3363 48.102C16.2242 48.2754 16.1164 48.4693 16.1966 48.6441C16.2768 48.8189 16.4779 48.861 16.6994 48.8988L16.8757 48.925L16.784 49.094C16.6515 49.2718 16.5394 49.4453 16.5992 49.6245C16.659 49.8036 16.8805 49.8414 17.102 49.8792L17.2827 49.9258L17.1662 50.0788C17.0337 50.2566 16.9011 50.4344 16.961 50.6136C17.0208 50.7928 17.2262 50.8554 17.4317 50.9179L17.6124 50.9645L17.4915 51.0971C17.3342 51.2589 17.177 51.4207 17.2368 51.5999C17.2966 51.7791 17.4656 51.8708 17.6755 51.9538L17.8402 52.0251L17.6989 52.1621C17.5328 52.2831 17.3712 52.4245 17.3902 52.6125C17.4092 52.8004 17.603 52.9081 17.7969 53.0159L17.9455 53.112L17.7955 53.2082C17.6295 53.3292 17.4386 53.4342 17.4169 53.6309C17.3951 53.8276 17.5933 53.9557 17.7463 54.0722L17.8994 54.1887L17.745 54.2645C17.5497 54.3491 17.3342 54.4381 17.308 54.6144C17.3011 54.7132 17.3214 54.812 17.3666 54.9001C17.4119 54.9881 17.4803 55.0621 17.5647 55.1141L17.6813 55.2597L17.5181 55.2948C17.2981 55.3633 17.0942 55.4071 17.0272 55.5922C16.9603 55.7773 17.0813 55.9433 17.2023 56.1094L17.3029 56.2798L17.1193 56.3192C16.911 56.3426 16.7026 56.366 16.6065 56.5147C16.5104 56.6633 16.5994 56.8789 16.7044 57.0698C16.7237 57.1311 16.7507 57.1899 16.7846 57.2446L16.5923 57.2432C16.3796 57.2462 16.1625 57.2288 16.046 57.3818C15.9295 57.5349 16.0141 57.7301 16.0783 57.9297C16.1424 58.1292 16.1293 58.068 16.1425 58.1292L15.9661 58.1031C15.7447 58.0653 15.5232 58.0275 15.3863 58.1849C15.3495 58.2332 15.3251 58.2898 15.315 58.3496L16.5183 58.0912C16.5026 58.0016 16.4767 57.9141 16.441 57.8304C16.4279 57.7692 16.39 57.692 16.3812 57.6512L16.5939 57.6482C16.8066 57.6452 17.0237 57.6626 17.1359 57.4892C17.248 57.3157 17.143 57.1249 17.0336 56.9137C17.0143 56.8523 16.9873 56.7936 16.9534 56.7389L17.1574 56.6951C17.3861 56.6673 17.5988 56.6643 17.6862 56.4749C17.7735 56.2854 17.6481 56.099 17.5227 55.9125L17.4017 55.7465L17.6057 55.7027C17.8257 55.6341 18.0296 55.5903 18.0966 55.4052C18.1635 55.2202 17.9974 55.0425 17.8356 54.8852L17.7146 54.7192L17.8894 54.6389C18.0846 54.5543 18.3002 54.4654 18.3219 54.2687C18.3437 54.072 18.1615 53.9191 17.9837 53.7865L17.8307 53.6701L17.9967 53.549C18.1875 53.4441 18.374 53.3187 18.3754 53.1264C18.3767 52.934 18.1785 52.8059 17.9847 52.6982L17.8156 52.6064L17.9569 52.4694C18.1186 52.328 18.3006 52.1822 18.2568 51.9783C18.213 51.7743 18.028 51.7074 17.8181 51.6244Z" fill="white"/>
<path d="M-0.315028 52.3387C-1.30444 52.1031 -2.39846 52.5727 -3.85634 53.9313C-3.08724 54.5135 -2.28741 55.054 -1.46031 55.5504C-1.30938 57.545 -1.70953 58.7618 -2.04111 60.1986C-2.37269 61.6353 -1.54769 62.397 -0.43165 62.328C0.684392 62.259 1.17227 61.7489 1.71657 60.3091C2.06869 59.3405 2.20354 58.3063 2.11157 57.2798C2.07279 56.6667 1.98482 56.0577 1.84852 55.4587C1.44996 53.6026 0.744334 52.602 -0.315028 52.3387Z" fill="#2AD17D"/>
<path d="M1.43721 54.6301C2.72793 54.1822 3.59909 53.8671 4.39055 54.572C5.18201 55.2768 5.38349 56.2151 5.40465 58.0028C5.42582 59.7905 4.96624 61.7242 3.6346 61.8821C2.30296 62.0401 1.6514 61.3905 1.71319 59.3929C1.71778 57.8012 1.62562 56.2106 1.43721 54.6301Z" fill="#2AD17D"/>
<path d="M4.69591 55.9996C5.67055 55.7689 6.8404 55.4537 7.39449 56.4443C7.94858 57.4348 7.96086 58.883 7.54469 60.1246C7.12852 61.3662 6.30404 61.7992 5.56814 61.5519C4.83225 61.3045 4.74177 60.9825 4.94509 59.4453C5.14841 57.9081 5.16417 57.2859 4.69591 55.9996Z" fill="#2AD17D"/>
<path d="M11.5375 57.2615C10.5861 57.4018 8.80728 57.7625 7.54997 57.9684L7.35065 58.63C9.30011 58.9024 11.2765 58.9226 13.2312 58.6901C13.5308 57.6016 12.7992 57.0759 11.5375 57.2615Z" fill="#2AD17D"/>
<path d="M1.77913 60.1038C2.27086 58.2828 2.22805 56.3587 1.6558 54.5614M5.21592 56.0373C5.57657 57.8161 5.57721 59.3096 4.9746 60.6765" stroke="black" stroke-width="1.34482" stroke-miterlimit="10" stroke-linecap="round"/>
<path d="M19.0797 33.6647C19.1637 32.3665 20.0955 30.8435 20.5674 30.3581" stroke="#039C78" stroke-width="1.34482" stroke-miterlimit="10" stroke-linecap="round"/>
<path d="M18.8381 26.2706L17.8064 25.9374" stroke="#039C78" stroke-width="1.34482" stroke-miterlimit="10" stroke-linecap="round"/>
</g>
<defs>
<linearGradient id="paint0_linear_1528_46667" x1="9.98746" y1="34.2307" x2="14.9319" y2="57.256" gradientUnits="userSpaceOnUse">
<stop stop-color="#29CC7A"/>
<stop offset="1" stop-color="#038567"/>
</linearGradient>
<clipPath id="clip0_1528_46667">
<rect width="60" height="60" rx="30" fill="white"/>
</clipPath>
</defs>
</svg>
