
<svg width="60" height="60" viewBox="0 0 60 60" fill="none" xmlns="http://www.w3.org/2000/svg">
<g clip-path="url(#clip0_1528_68074)">
<path d="M44.9448 43.1204C44.5123 43.2226 44.0591 43.1949 43.6423 43.0405C43.2255 42.886 42.8635 42.612 42.6019 42.2527C42.2561 41.7542 42.1172 41.1411 42.2143 40.5423C42.3114 39.9434 42.637 39.4057 43.1226 39.042C47.0274 36.1784 47.7216 34.0091 47.2878 33.4017C46.9509 32.8928 46.8259 32.2725 46.9394 31.6729C47.0529 31.0733 47.3957 30.5416 47.8952 30.191C48.3905 29.8588 48.997 29.7363 49.5824 29.8501C50.1678 29.9639 50.6844 30.3048 51.0191 30.7984C52.1471 32.3604 53.8826 36.6991 45.8126 42.6866C45.5734 42.9149 45.271 43.0661 44.9448 43.1204Z" fill="#4086EA"/>
<path d="M51.975 33.9218C51.2808 29.1492 46.1611 29.9302 39.1323 31.3186V31.5789C39.2291 31.8678 39.3835 32.1342 39.586 32.3618C39.7886 32.5894 40.0351 32.7737 40.3108 32.9034C40.5866 33.0332 40.8857 33.1057 41.1902 33.1167C41.4947 33.1276 41.7983 33.0768 42.0827 32.9673C43.124 32.6202 46.2479 31.926 47.2892 33.4012C48.3304 34.8763 47.0288 36.1779 43.124 39.0415C42.6384 39.4052 42.3128 39.9429 42.2157 40.5418C42.1186 41.1406 42.2575 41.7537 42.6033 42.2522C42.8649 42.6115 43.2268 42.8856 43.6437 43.04C44.0604 43.1944 44.5137 43.2221 44.9462 43.1199C45.2724 43.0656 45.5747 42.9144 45.814 42.6861C50.6734 39.1283 51.975 36.0912 51.975 33.9218Z" fill="#0654B5"/>
<path d="M16.4826 56.1364C15.9543 56.2561 15.4006 56.1815 14.9226 55.9264C14.4446 55.6721 14.0743 55.253 13.8793 54.748C13.2891 53.2012 13.3105 51.4876 13.9393 49.9561C14.568 48.4246 15.7568 47.1902 17.2635 46.5044L23.5981 43.554C23.8716 43.4286 24.1671 43.3584 24.4677 43.3472C24.7684 43.3361 25.0683 43.3843 25.3503 43.489C25.6323 43.5938 25.8909 43.7531 26.1114 43.9578C26.3318 44.1625 26.5099 44.4086 26.6352 44.6821C26.7606 44.9556 26.8308 45.2511 26.842 45.5518C26.8531 45.8523 26.8049 46.1522 26.7002 46.4342C26.5955 46.7163 26.4361 46.9749 26.2314 47.1953C26.0267 47.4158 25.7807 47.5938 25.5071 47.7192L19.1726 50.5828C18.7126 50.7923 18.3493 51.1687 18.156 51.6358C17.9628 52.1029 17.9539 52.6259 18.1313 53.0992C18.3334 53.6641 18.311 54.285 18.0688 54.8339C17.8266 55.3832 17.3831 55.8179 16.8297 56.0496L16.4826 56.1364Z" fill="#4086EA"/>
<path d="M21.6038 47.1117C19.2609 48.0662 17.6122 49.7149 17.9593 52.4917C17.9562 52.0903 18.0693 51.6965 18.2848 51.3578C18.5004 51.019 18.8092 50.7499 19.1741 50.5826L24.1203 48.3265C23.5128 47.372 22.6451 46.6778 21.6038 47.1117Z" fill="#0654B5"/>
<path d="M45.2084 39.4756C44.8107 38.8279 44.2205 38.3208 43.5203 38.0251C42.8201 37.7296 42.045 37.6601 41.3035 37.8268L23.775 42.0788C23.0542 42.2641 22.4121 42.6762 21.9434 43.2543C21.4746 43.8324 21.2042 44.5459 21.1718 45.2895L20.7379 54.8347C20.6591 57.1672 21.43 59.4494 22.9073 61.256C23.5472 62.0005 24.3787 62.5559 25.3118 62.8622C26.2448 63.1677 27.2439 63.2128 28.2005 62.9915L47.0307 58.3924C47.9737 58.1556 48.8347 57.667 49.5223 56.9789C50.2099 56.2916 50.6983 55.4308 50.9355 54.4876C51.4211 52.1798 51.051 49.7742 49.8942 47.7192L45.2084 39.4756Z" fill="#FF7259"/>
<path d="M22.9078 61.2559C23.5477 62.0004 24.3792 62.5557 25.3123 62.8621C26.2453 63.1675 27.2444 63.2126 28.201 62.9914L47.0312 58.3923C47.9742 58.1554 48.8352 57.6669 49.5228 56.9787C50.2104 56.2915 50.6988 55.4307 50.936 54.4874C51.3015 52.7531 51.1814 50.9514 50.5889 49.2809L20.8252 56.4833C21.0403 58.243 21.7641 59.9013 22.9078 61.2559Z" fill="#ED4C4C"/>
<path d="M48.0724 53.9671L25.1639 59.5207C24.0243 59.8409 22.815 59.8105 21.6929 59.4339C22.04 60.0413 22.4738 60.6487 22.9077 61.2562C23.5476 62.0007 24.3792 62.556 25.3123 62.8624C26.2453 63.1678 27.2443 63.2129 28.201 62.9917L47.0311 58.3926C47.9741 58.1557 48.8351 57.6672 49.5228 56.979C50.2104 56.2918 50.6987 55.431 50.936 54.4877C51.0334 53.7683 51.0913 53.0441 51.1095 52.3184C50.2781 53.1504 49.223 53.7232 48.0724 53.9671Z" fill="#ED4C4C"/>
<path d="M37.1354 5.7507L10.5705 13.2178C7.11024 14.1903 5.0936 17.7839 6.06625 21.2442L10.5746 37.2833C11.5473 40.7435 15.1408 42.7601 18.601 41.7875L45.1659 34.3204C48.6262 33.3479 50.6427 29.7542 49.6701 26.294L45.1618 10.2549C44.1891 6.79469 40.5956 4.77804 37.1354 5.7507Z" fill="#FF7259"/>
<path d="M48.8519 23.5093L49.6328 26.2861C49.8705 27.1123 49.9422 27.9774 49.8437 28.8313C49.7452 29.6854 49.4785 30.5114 49.0589 31.2617C48.6393 32.0121 48.0753 32.6719 47.3993 33.203C46.7234 33.7341 45.9489 34.1261 45.1205 34.3562L18.5675 41.8188C17.747 42.0554 16.8876 42.1261 16.0395 42.0265C15.1914 41.927 14.3717 41.6593 13.6283 41.2392C12.8849 40.819 12.2327 40.2548 11.7101 39.5795C11.1874 38.9042 10.8046 38.1315 10.5842 37.3065L9.80322 34.5297C10.0236 35.3547 10.4064 36.1274 10.9291 36.8027C11.4518 37.478 12.1039 38.0422 12.8473 38.4624C13.5907 38.8825 14.4104 39.1502 15.2585 39.2498C16.1066 39.3493 16.966 39.2787 17.7865 39.042L44.4263 31.5794C45.2468 31.3401 46.0122 30.9415 46.6786 30.4065C47.345 29.8714 47.8995 29.2103 48.3105 28.4609C48.7214 27.7116 48.9807 26.8886 49.0737 26.039C49.1665 25.1894 49.0912 24.3298 48.8519 23.5093Z" fill="#ED4C4C"/>
<path d="M27.5607 34.5269L33.5754 32.8361C33.9299 32.7365 34.3094 32.7818 34.6306 32.962C34.9517 33.1422 35.1881 33.4426 35.2877 33.7971L36.1565 36.8879L27.5522 39.3065L26.6834 36.2157C26.587 35.8753 26.6242 35.5111 26.7872 35.1973C26.9503 34.8834 27.2269 34.6437 27.5607 34.5269Z" fill="#FFDC53"/>
<path d="M35.3514 34.0875L26.7471 36.506L27.5267 39.2795L36.131 36.8609L35.3514 34.0875Z" fill="#F9B300"/>
<path d="M49.0276 24.0301L45.8169 12.489C46.6887 12.8074 47.4731 13.327 48.1064 14.0055C48.7396 14.684 49.2039 15.5023 49.4614 16.3939L50.1556 18.8236C50.4111 19.7172 50.4418 20.6601 50.245 21.5684C50.0482 22.4767 49.63 23.3223 49.0276 24.0301Z" fill="#FFDC53"/>
<path d="M49.6346 16.9142L50.1552 18.8233C50.4107 19.7169 50.4414 20.6598 50.2446 21.5681C50.0478 22.4764 49.6296 23.322 49.0271 24.0298L47.9858 20.3852C49.2875 19.3439 49.8949 18.0423 49.6346 16.9142Z" fill="#F9B300"/>
<path d="M9.89001 35.0504L6.67934 23.5093C6.07695 24.2171 5.65869 25.0627 5.46189 25.971C5.26508 26.8793 5.2958 27.8222 5.55126 28.7158L6.24546 31.1455C6.5031 32.0371 6.96734 32.8554 7.60062 33.5339C8.23391 34.2124 9.01827 34.732 9.89001 35.0504Z" fill="#FFDC53"/>
<path d="M8.84899 31.4055L9.89029 35.05C9.01846 34.7316 8.2341 34.212 7.60082 33.5335C6.96762 32.855 6.50329 32.0367 6.24574 31.1451L5.7251 29.2361C5.98542 30.3642 7.20027 31.1451 8.84899 31.4055Z" fill="#F9B300"/>
<path d="M18.585 8.65697L28.9437 5.74533C29.2317 5.66437 29.5401 5.70117 29.801 5.84755C30.0618 5.99394 30.254 6.23804 30.3349 6.52604L30.6402 7.61203L18.1096 11.1342L17.8043 10.0482C17.7233 9.76023 17.7601 9.45183 17.9065 9.1909C18.0529 8.92997 18.297 8.73793 18.585 8.65697Z" fill="#70A9FA"/>
<path d="M20.1868 8.13385L29.0418 5.6448C29.3076 5.57009 29.5923 5.60402 29.8332 5.73913C30.074 5.87432 30.2512 6.09959 30.326 6.36546L30.6547 7.53502L19.7949 10.5876L19.4661 9.41803C19.3914 9.15215 19.4253 8.86753 19.5605 8.62664C19.6956 8.38584 19.921 8.20856 20.1868 8.13385Z" fill="#4086EA"/>
<path d="M37.4641 10.915L14.7419 17.3019C12.9888 17.7947 11.967 19.6154 12.4598 21.3686L15.2189 31.1842C15.7117 32.9374 17.5324 33.9592 19.2856 33.4664L42.0077 27.0794C43.7609 26.5866 44.7826 24.7659 44.2898 23.0127L41.5308 13.1971C41.038 11.4439 39.2172 10.4222 37.4641 10.915Z" fill="#ED4C4C"/>
<path d="M37.2864 10.2934L14.5642 16.6803C12.811 17.1731 11.7893 18.9938 12.2821 20.747L15.0412 30.5626C15.5339 32.3158 17.3547 33.3376 19.1079 32.8447L41.83 26.4578C43.5832 25.965 44.6049 24.1443 44.1121 22.3911L41.3531 12.5755C40.8603 10.8223 39.0396 9.80056 37.2864 10.2934Z" fill="black"/>
<path d="M21.7932 21.0814L17.0315 22.4198C16.7547 22.4977 16.5903 22.7739 16.6642 23.0369C16.738 23.2999 17.0224 23.45 17.2992 23.3722L22.0609 22.0338C22.3377 21.9559 22.5021 21.6796 22.4282 21.4167C22.3543 21.1537 22.07 21.0036 21.7932 21.0814Z" fill="#FFF0A6"/>
<path d="M33.519 18.7726L38.6148 17.3402C38.8916 17.2623 39.056 16.9861 38.9822 16.7231C38.9082 16.4602 38.6239 16.3101 38.3471 16.3878L33.2513 17.8202C32.9745 17.898 32.81 18.1743 32.8839 18.4373C32.9578 18.7003 33.2422 18.8503 33.519 18.7726Z" fill="#FFF0A6"/>
<path d="M36.9635 38.868L28.1992 41.0374L28.4595 47.372C28.4695 47.5172 28.51 47.6588 28.5781 47.7874C28.6462 47.916 28.7405 48.029 28.855 48.119C28.9695 48.2089 29.1016 48.2738 29.2427 48.3096C29.3838 48.3453 29.5309 48.3511 29.6744 48.3265L38.9593 46.0704C39.1016 46.0353 39.2338 45.968 39.346 45.8736C39.4581 45.7792 39.5469 45.6603 39.6057 45.5261C39.6644 45.3919 39.6914 45.2458 39.6846 45.0994C39.6779 44.9531 39.6375 44.8102 39.5667 44.682L36.9635 38.868Z" fill="#FFDC53"/>
<path d="M27.332 24.5503C27.9493 23.5217 28.8832 22.7207 29.9939 22.267C31.1044 21.8133 32.3321 21.7316 33.493 22.0338" stroke="#FFF0A6" stroke-width="0.355446" stroke-linecap="round" stroke-linejoin="round"/>
<path d="M23.9483 59.6075C23.7031 59.6422 23.4542 59.5797 23.2541 59.4339L21.1715 57.2646C21.0901 57.1318 21.0558 56.9748 21.0742 56.8203C21.0925 56.6658 21.1624 56.5218 21.2726 56.4116C21.3829 56.3014 21.527 56.2311 21.6818 56.2129C21.8366 56.1947 21.993 56.2285 22.126 56.3101L24.2954 58.4794C24.4174 58.6087 24.4855 58.7788 24.4855 58.9567C24.4855 59.1346 24.4174 59.3047 24.2954 59.4339L23.9483 59.6075Z" fill="#22262E"/>
<path d="M22.0408 60.4751H21.9541C21.7611 60.4759 21.5745 60.4056 21.4304 60.2781C21.2862 60.1497 21.1945 59.9726 21.1731 59.7809L20.9995 56.8305C20.9981 56.6604 21.0592 56.4956 21.1713 56.368C21.2832 56.2396 21.4382 56.1572 21.607 56.1363C21.6982 56.1242 21.791 56.1302 21.8799 56.1545C21.9687 56.1788 22.0519 56.2196 22.1246 56.2769C22.1973 56.3333 22.258 56.4036 22.3032 56.4834C22.3484 56.5641 22.3772 56.6526 22.3879 56.7437L22.5615 59.6941C22.571 59.8633 22.5255 60.0308 22.4315 60.1714C22.3376 60.3128 22.2005 60.4187 22.0408 60.4751Z" fill="#22262E"/>
<path d="M21.2561 58.913H19.347C18.144 58.7793 17 58.3212 16.0371 57.587C15.0742 56.8538 14.3287 55.8724 13.8802 54.7478C13.7686 54.4689 13.7139 54.1706 13.7191 53.8703C13.7244 53.57 13.7895 53.2737 13.9108 52.9989C14.032 52.7241 14.2069 52.4763 14.4251 52.27C14.6434 52.0637 14.9007 51.903 15.1819 51.7974C15.7468 51.5954 16.3677 51.6177 16.9166 51.8599C17.4655 52.1021 17.9006 52.5456 18.1322 53.0991C18.2589 53.4478 18.4802 53.7544 18.7715 53.9843C19.0627 54.2143 19.4123 54.3584 19.7809 54.4007H20.909C21.2056 54.4226 21.4949 54.5031 21.7603 54.6367C22.0258 54.7712 22.2621 54.9569 22.4556 55.1825C22.6492 55.4081 22.7962 55.6702 22.8881 55.9531C22.9801 56.236 23.0153 56.5336 22.9916 56.8304C22.9819 57.3232 22.8047 57.7979 22.4892 58.1762C22.1738 58.5546 21.7389 58.8149 21.2561 58.913Z" fill="#4086EA"/>
<path d="M39.0477 33.5748C38.9044 33.611 38.7533 33.6005 38.6165 33.5448C38.4796 33.4892 38.3641 33.3913 38.2866 33.2655C38.2092 33.1397 38.1738 32.9924 38.1859 32.8452C38.198 32.6979 38.2566 32.5583 38.3535 32.4467L40.4361 30.4509C40.4909 30.3613 40.5653 30.2854 40.6537 30.2288C40.7421 30.1722 40.8422 30.1363 40.9464 30.124C41.0506 30.1116 41.1563 30.123 41.2555 30.1574C41.3547 30.1919 41.4448 30.2483 41.519 30.3224C41.5932 30.3967 41.6497 30.4868 41.6841 30.586C41.7184 30.6852 41.7299 30.7909 41.7175 30.8951C41.7051 30.9993 41.6693 31.0994 41.6126 31.1878C41.5561 31.2762 41.4801 31.3506 41.3906 31.4054L39.308 33.4012L39.0477 33.5748Z" fill="#22262E"/>
<path d="M41.1273 31.5788H40.6067L38.0034 30.364C37.9231 30.319 37.8526 30.2584 37.796 30.1858C37.7393 30.1132 37.6976 30.0301 37.6733 29.9412C37.6491 29.8525 37.6429 29.7596 37.6548 29.6683C37.6668 29.577 37.6968 29.489 37.7431 29.4095C37.7794 29.332 37.8315 29.2631 37.8963 29.2072C37.961 29.1513 38.0368 29.1097 38.1187 29.0851C38.2006 29.0605 38.2868 29.0535 38.3716 29.0646C38.4564 29.0756 38.538 29.1045 38.6109 29.1492L41.2141 30.364C41.3017 30.4012 41.3809 30.4561 41.4465 30.5252C41.512 30.5944 41.5627 30.6762 41.5952 30.7658C41.6278 30.8553 41.6416 30.9506 41.6357 31.0457C41.6298 31.1408 41.6045 31.2337 41.5612 31.3185C41.4456 31.4465 41.2946 31.5371 41.1273 31.5788Z" fill="#22262E"/>
<path d="M41.1311 31.579H38.094C38.0072 31.5915 37.9188 31.5852 37.8348 31.5603C37.7508 31.5355 37.6732 31.4927 37.6072 31.435C37.5413 31.3773 37.4886 31.306 37.4528 31.226C37.4169 31.146 37.3989 31.0593 37.3998 30.9716C37.3872 30.8848 37.3937 30.7965 37.4185 30.7124C37.4434 30.6284 37.4862 30.5508 37.5439 30.4848C37.6016 30.4189 37.6728 30.3662 37.7528 30.3304C37.8328 30.2946 37.9196 30.2766 38.0072 30.2774H40.8708C40.962 30.2653 41.0549 30.2714 41.1437 30.2955C41.2326 30.3196 41.3158 30.3611 41.3884 30.4176C41.4612 30.4741 41.5219 30.5445 41.567 30.6248C41.6122 30.705 41.641 30.7934 41.6518 30.8849C41.6434 31.039 41.5894 31.1873 41.4967 31.3109C41.4041 31.4345 41.2768 31.5278 41.1311 31.579Z" fill="#22262E"/>
<path d="M49.7196 34.269C49.2744 34.3901 48.8029 34.3718 48.3685 34.2167C47.934 34.0615 47.5576 33.7769 47.2899 33.4012C46.2486 31.9261 43.1247 32.6203 42.0834 32.9674C41.799 33.0769 41.4955 33.1277 41.191 33.1167C40.8864 33.1058 40.5873 33.0332 40.3116 32.9035C40.0359 32.7737 39.7893 32.5894 39.5868 32.3618C39.3843 32.1341 39.2299 31.8678 39.1331 31.579C38.9614 31.0145 39.0091 30.4061 39.2665 29.8753C39.5239 29.3444 39.972 28.9302 40.5215 28.7154C43.2115 27.7609 48.418 27.0667 51.0212 30.798C51.2016 31.0337 51.3317 31.3041 51.4033 31.5921C51.4751 31.8802 51.4869 32.18 51.4381 32.4728C51.3893 32.7656 51.2809 33.0454 51.1196 33.2946C50.9584 33.5438 50.7477 33.7574 50.5005 33.9219C50.2775 34.1079 50.0071 34.2281 49.7196 34.269Z" fill="#4086EA"/>
<path d="M13.5327 53.6198C13.5964 54.0098 13.7132 54.3894 13.8797 54.7479C14.3283 55.8725 15.0737 56.8539 16.0366 57.5871C16.9995 58.3212 18.1435 58.7794 19.3466 58.913H21.2556C21.7244 58.8185 22.1488 58.5712 22.4627 58.2102C22.7766 57.8492 22.9624 57.3945 22.9911 56.9172C17.611 57.785 14.0534 55.2685 13.5327 53.6198Z" fill="#0654B5"/>
<path d="M51.4543 32.1866C49.8056 29.4098 45.1198 30.104 39.1323 31.3188V31.5791C39.2291 31.8681 39.3835 32.1344 39.586 32.362C39.7886 32.5896 40.0351 32.774 40.3108 32.9037C40.5866 33.0334 40.8857 33.106 41.1902 33.117C41.4947 33.1279 41.7983 33.0771 42.0827 32.9675C43.124 32.6204 46.2479 31.9262 47.2892 33.4014L49.1114 36.1782L51.6279 33.6617L51.4543 32.1866Z" fill="#0654B5"/>
<path d="M13.4482 52.3181V52.9255C14.0949 52.3993 14.8992 52.1049 15.7328 52.0892C16.5664 52.0734 17.3812 52.3374 18.0473 52.8387V52.4916C17.4546 51.8689 16.6422 51.5022 15.783 51.4698C14.9239 51.4374 14.0861 51.7417 13.4482 52.3181Z" fill="black"/>
<path d="M18.8279 45.7234L18.394 45.9837C19.0703 46.4393 19.5907 47.0909 19.8854 47.851C20.1802 48.6112 20.2351 49.4433 20.0428 50.2357L20.4767 49.9754C20.8238 47.806 20.1295 46.4176 18.8279 45.7234Z" fill="black"/>
<path d="M18.6544 53.88C18.1929 53.8331 17.7271 53.9103 17.3054 54.1037C16.8837 54.2972 16.5213 54.6003 16.2559 54.9803C15.9904 55.3613 15.8315 55.8056 15.7954 56.2681C15.7594 56.7306 15.8478 57.194 16.0512 57.6113L16.6586 58.0452C16.0512 55.7891 16.7454 54.661 18.828 54.0536L18.6544 53.88Z" fill="black"/>
<path d="M14.7518 48.5005L14.4048 48.9344C16.2271 47.7195 18.3097 49.9756 18.4832 51.1037L18.7435 50.8434C18.7184 50.3858 18.5805 49.9415 18.3419 49.5502C18.1034 49.1588 17.7717 48.8327 17.3765 48.6006C16.9812 48.3687 16.5347 48.2381 16.0768 48.2206C15.6188 48.2031 15.1636 48.2992 14.7518 48.5005Z" fill="black"/>
<path d="M48.3305 40.6036C47.6363 37.5665 46.2479 37.3062 45.2934 37.2194L44.9463 37.5665C47.4628 38.0872 47.9834 40.9507 47.9834 40.9507L48.3305 40.6036Z" fill="black"/>
<path d="M47.1145 34.7898L46.9409 35.3104C49.2838 35.2237 50.4987 36.0914 50.9326 37.4798L51.2797 36.7856C49.978 34.8766 48.6764 34.3559 47.1145 34.7898Z" fill="black"/>
<path d="M43.5596 28.0214H42.8654C42.5183 29.323 42.6919 31.4056 43.9067 32.4469H44.3406C43.5067 31.1325 43.2261 29.5418 43.5596 28.0214Z" fill="black"/>
<path d="M46.5107 32.7941C47.2431 31.4331 47.7695 29.9709 48.0727 28.4554L48.6801 28.7157C48.4347 30.26 47.8735 31.7369 47.0314 33.0544L46.5107 32.7941Z" fill="black"/>
</g>
<defs>
<clipPath id="clip0_1528_68074">
<rect y="0.00012207" width="60" height="60" rx="30" fill="white"/>
</clipPath>
</defs>
</svg>
