
<svg width="578" height="159" viewBox="0 0 578 159" fill="none" xmlns="http://www.w3.org/2000/svg">
<g clip-path="url(#clip0_502_8250)">
<path d="M577.223 50.8411V109.183H557.786V98.5681C556.143 102.562 553.649 105.606 550.294 107.69C546.94 109.762 542.792 110.804 537.873 110.804C533.475 110.804 529.645 109.716 526.369 107.528C523.094 105.34 520.566 102.342 518.787 98.5334C517.019 94.725 516.124 90.4188 516.124 85.6032C516.067 80.6372 517.008 76.1805 518.946 72.2332C520.872 68.2858 523.604 65.2066 527.117 62.9957C530.631 60.7847 534.643 59.6734 539.142 59.6734C548.402 59.6734 554.613 63.7828 557.786 71.9901V50.8411H577.223ZM554.885 92.6992C556.868 90.7313 557.854 88.173 557.854 85.0476C557.854 82.0263 556.891 79.5606 554.964 77.6738C553.037 75.7869 550.396 74.8377 547.076 74.8377C543.8 74.8377 541.182 75.7985 539.221 77.7201C537.261 79.6417 536.286 82.1305 536.286 85.2096C536.286 88.2888 537.261 90.8008 539.221 92.7455C541.182 94.6902 543.766 95.6626 546.996 95.6626C550.272 95.651 552.901 94.6671 554.885 92.6992Z" fill="#5865F2"/>
<path d="M512.645 62.6715V80.1742C510.628 78.8198 508.021 78.1484 504.791 78.1484C500.564 78.1484 497.299 79.4565 495.033 82.0726C492.755 84.6887 491.621 88.7634 491.621 94.2735V109.183H472.184V61.7802H491.225V76.8519C492.279 71.3418 493.99 67.2787 496.347 64.651C498.694 62.0349 501.731 60.7268 505.426 60.7268C508.225 60.7268 510.628 61.3751 512.645 62.6715Z" fill="#5865F2"/>
<path d="M418.519 107.401C413.94 105.132 410.449 102.029 408.047 98.082C405.644 94.1346 404.431 89.7358 404.431 84.874C404.431 80.0121 405.633 75.6712 408.047 71.8628C410.461 68.0543 413.929 65.0678 418.485 62.9031C423.03 60.7384 428.459 59.6619 434.749 59.6619C441.039 59.6619 446.468 60.7384 451.013 62.9031C455.557 65.0678 459.025 68.0312 461.405 71.8165C463.786 75.6018 464.976 79.9427 464.976 84.8624C464.976 89.7242 463.786 94.1231 461.405 98.0704C459.025 102.018 455.546 105.12 450.967 107.389C446.388 109.658 440.982 110.792 434.737 110.792C428.493 110.792 423.086 109.669 418.519 107.401ZM442.626 93.0233C444.552 91.0555 445.527 88.4509 445.527 85.2097C445.527 81.9685 444.564 79.387 442.626 77.477C440.699 75.5555 438.069 74.5947 434.737 74.5947C431.349 74.5947 428.697 75.5555 426.758 77.477C424.832 79.3986 423.868 81.9685 423.868 85.2097C423.868 88.4509 424.832 91.0555 426.758 93.0233C428.685 94.9912 431.349 95.9868 434.737 95.9868C438.069 95.9752 440.699 94.9912 442.626 93.0233Z" fill="#5865F2"/>
<path d="M362.145 107.4C357.601 105.131 354.166 102.052 351.877 98.1623C349.588 94.2729 348.432 89.8972 348.432 85.0354C348.432 80.1735 349.622 75.821 352.002 71.9894C354.382 68.1578 357.873 65.1481 362.474 62.9603C367.075 60.7725 372.572 59.6843 378.976 59.6843C386.909 59.6843 393.494 61.386 398.73 64.7893V79.6179C396.883 78.3214 394.73 77.268 392.27 76.4577C389.811 75.6474 387.181 75.2422 384.371 75.2422C379.452 75.2422 375.61 76.1567 372.833 77.9973C370.056 79.8378 368.662 82.234 368.662 85.209C368.662 88.1261 370.011 90.5107 372.708 92.386C375.406 94.2497 379.316 95.1873 384.45 95.1873C387.091 95.1873 389.697 94.7938 392.27 94.0182C394.832 93.231 397.042 92.2702 398.889 91.1358V105.478C393.075 109.044 386.331 110.826 378.658 110.826C372.198 110.803 366.69 109.669 362.145 107.4Z" fill="#5865F2"/>
<path d="M305.975 109.102C301.69 107.967 297.826 106.324 294.392 104.159V90.7079C296.987 92.7568 300.466 94.4468 304.83 95.7781C309.193 97.0977 313.409 97.7575 317.49 97.7575C319.394 97.7575 320.833 97.5028 321.808 96.9935C322.782 96.4842 323.27 95.8707 323.27 95.1645C323.27 94.3542 323.009 93.6828 322.476 93.1388C321.944 92.5947 320.912 92.1433 319.382 91.7613L309.862 89.5734C304.411 88.2769 300.546 86.4827 298.245 84.1791C295.944 81.8871 294.8 78.8774 294.8 75.15C294.8 72.0129 295.797 69.2926 297.814 66.9659C299.82 64.6391 302.677 62.8449 306.383 61.5831C310.089 60.3098 314.418 59.6731 319.394 59.6731C323.836 59.6731 327.905 60.1593 331.611 61.1316C335.317 62.104 338.377 63.3426 340.814 64.8591V77.5809C338.321 76.0644 335.465 74.8721 332.201 73.9692C328.948 73.0779 325.604 72.638 322.159 72.638C317.184 72.638 314.702 73.5062 314.702 75.231C314.702 76.0413 315.087 76.6432 315.858 77.0484C316.628 77.4535 318.045 77.8703 320.096 78.3102L328.03 79.7687C333.209 80.6832 337.074 82.2922 339.613 84.5842C342.152 86.8763 343.421 90.268 343.421 94.7594C343.421 99.6791 341.324 103.58 337.119 106.474C332.915 109.368 326.953 110.815 319.224 110.815C314.679 110.803 310.259 110.236 305.975 109.102Z" fill="#5865F2"/>
<path d="M276.031 66.8266C281.383 66.8266 285.721 62.8463 285.721 57.9364C285.721 53.0264 281.383 49.0461 276.031 49.0461C270.679 49.0461 266.341 53.0264 266.341 57.9364C266.341 62.8463 270.679 66.8266 276.031 66.8266Z" fill="#5865F2"/>
<path d="M266.332 72.9504C272.27 75.5666 279.637 75.6823 285.712 72.9504V109.437H266.332V72.9504Z" fill="#5865F2"/>
<path d="M194.349 52.4612H225.289C232.747 52.4612 239.049 53.6535 244.217 56.0265C249.373 58.3996 253.238 61.7103 255.8 65.947C258.361 70.1838 259.653 75.034 259.653 80.4978C259.653 85.8458 258.316 90.6961 255.641 95.037C252.966 99.3895 248.897 102.828 243.423 105.363C237.949 107.898 231.172 109.171 223.068 109.171H194.349V52.4612ZM222.751 94.7592C227.772 94.7592 231.636 93.4743 234.334 90.916C237.031 88.3462 238.38 84.8503 238.38 80.4168C238.38 76.3074 237.178 73.0314 234.776 70.5773C232.373 68.1233 228.735 66.8846 223.873 66.8846H214.194V94.7592H222.751Z" fill="#5865F2"/>
<path d="M122.778 33.3468C113.45 28.9827 103.476 25.811 93.0495 24.0051C91.7688 26.3203 90.2727 29.4342 89.2414 31.9114C78.1571 30.2445 67.1748 30.2445 56.2945 31.9114C55.2631 29.4342 53.733 26.3203 52.441 24.0051C42.0027 25.811 32.0178 28.9943 22.6902 33.37C3.87633 61.8001 -1.22381 89.5242 1.32626 116.855C13.8046 126.173 25.8976 131.834 37.7866 135.538C40.722 131.498 43.3401 127.203 45.5955 122.677C41.3 121.045 37.1859 119.031 33.2985 116.693C34.3298 115.929 35.3385 115.13 36.3132 114.308C60.0232 125.398 85.7846 125.398 109.211 114.308C110.197 115.13 111.206 115.929 112.226 116.693C108.327 119.043 104.202 121.057 99.9063 122.689C102.162 127.203 104.768 131.51 107.715 135.55C119.616 131.845 131.72 126.185 144.198 116.855C147.19 85.1717 139.087 57.7023 122.778 33.3468ZM48.8256 100.047C41.708 100.047 35.8712 93.4021 35.8712 85.3106C35.8712 77.2191 41.5834 70.563 48.8256 70.563C56.0678 70.563 61.9046 77.2076 61.7799 85.3106C61.7913 93.4021 56.0678 100.047 48.8256 100.047ZM96.6989 100.047C89.5814 100.047 83.7445 93.4021 83.7445 85.3106C83.7445 77.2191 89.4567 70.563 96.6989 70.563C103.941 70.563 109.778 77.2076 109.653 85.3106C109.653 93.4021 103.941 100.047 96.6989 100.047Z" fill="#5865F2"/>
</g>
<defs>
<clipPath id="clip0_502_8250">
<rect width="576.778" height="158.021" fill="white" transform="translate(0.714355 0.000244141)"/>
</clipPath>
</defs>
</svg>
