<svg width="60" height="60" viewBox="0 0 60 60" fill="none" xmlns="http://www.w3.org/2000/svg">
<g clip-path="url(#clip0_1702_40)">
<mask id="mask0_1702_40" style="mask-type:luminance" maskUnits="userSpaceOnUse" x="-1" y="0" width="61" height="60">
<path d="M59.9998 0H-0.000244141V60H59.9998V0Z" fill="white"/>
</mask>
<g mask="url(#mask0_1702_40)">
<path d="M28.5715 55.2327C41.7211 55.2327 52.381 44.574 52.381 31.4259C52.381 18.2776 41.7211 7.61896 28.5715 7.61896C15.4218 7.61896 4.76196 18.2776 4.76196 31.4259C4.76196 44.574 15.4218 55.2327 28.5715 55.2327Z" fill="#5865F2"/>
<path d="M50.4108 43.651L42.9609 35.1388L41.0099 26.7351L19.6338 39.7552C19.6338 39.7552 22.1149 43.8727 25.1298 44.9415C26.4578 45.402 27.8529 45.6387 29.2585 45.6424L37.7984 55.3873C38.2634 55.8878 38.8226 56.2917 39.4439 56.576C40.0652 56.8603 40.7365 57.0192 41.4194 57.0438C42.1022 57.0684 42.7832 56.9581 43.4234 56.7194C44.0635 56.4805 44.6504 56.1178 45.1502 55.6521L50.1229 51.0085C51.1338 50.0694 51.7315 48.768 51.7855 47.3893C51.8394 46.0104 51.3451 44.6664 50.4108 43.651Z" fill="#66BCFF"/>
<path d="M38.3953 16.1739L39.6058 13.9374L46.5718 17.5889L45.3695 19.8229L38.3953 16.1739Z" fill="#898989"/>
<path d="M43.332 19.7703C43.3026 19.6758 43.2997 19.5749 43.3237 19.4786L44.178 16.1028C44.2147 15.964 44.304 15.8448 44.427 15.7703C44.55 15.6958 44.6973 15.6718 44.8374 15.7033C44.9769 15.7395 45.096 15.829 45.1693 15.9525C45.2424 16.076 45.2637 16.2235 45.2284 16.3628L44.3742 19.7386C44.3374 19.8773 44.2482 19.9965 44.125 20.071C44.002 20.1456 43.8549 20.1696 43.7146 20.138C43.6246 20.1145 43.5422 20.0683 43.4753 20.0039C43.4083 19.9396 43.3589 19.8592 43.332 19.7703Z" fill="#ADACAC"/>
<path d="M39.8494 17.9901C39.8159 17.8963 39.8131 17.7941 39.8412 17.6984L40.6955 14.3226C40.7119 14.2538 40.7419 14.1889 40.7837 14.1317C40.8252 14.0745 40.8779 14.026 40.9385 13.9892C40.9989 13.9523 41.0662 13.9277 41.1362 13.9168C41.2062 13.9059 41.2778 13.9089 41.3465 13.9257C41.4868 13.9601 41.6077 14.0485 41.6825 14.1716C41.7574 14.2947 41.7802 14.4426 41.7458 14.5826L40.8917 17.9584C40.8551 18.0974 40.7651 18.2164 40.6411 18.2897C40.5171 18.363 40.3691 18.3844 40.2295 18.3494C40.1398 18.3286 40.0574 18.2844 39.9905 18.2213C39.9238 18.158 39.8751 18.0783 39.8494 17.9901Z" fill="#ADACAC"/>
<path d="M41.587 18.882C41.5577 18.7873 41.5549 18.6865 41.5789 18.5903L42.4332 15.2145C42.4699 15.0757 42.5592 14.9565 42.6822 14.8819C42.8052 14.8075 42.9523 14.7835 43.0926 14.815C43.2319 14.851 43.3512 14.9406 43.4243 15.0642C43.4976 15.1877 43.5189 15.3352 43.4834 15.4745L42.6292 18.8503C42.6127 18.919 42.5829 18.9839 42.5412 19.0412C42.4994 19.0983 42.4467 19.1467 42.3863 19.1836C42.3257 19.2206 42.2584 19.2452 42.1884 19.256C42.1184 19.2669 42.0469 19.2639 41.9782 19.247C41.8873 19.2242 41.8037 19.1787 41.7353 19.1149C41.6669 19.051 41.6159 18.9709 41.587 18.882Z" fill="#ADACAC"/>
<path d="M42.264 10.0717L47.0596 0.974711L45.8188 0.342041C41.676 1.11768 37.8886 3.19537 35.0115 6.27073L42.264 10.0717Z" fill="#898989"/>
<path d="M19.6544 46.6572L38.207 26.6345C38.6484 26.1906 39.2133 25.8889 39.828 25.7686C42.6407 25.2013 52.7073 22.6866 54.326 22.2262C55.9447 21.7658 59.4756 19.5115 59.355 13.5803C59.2346 7.64918 57.5509 6.30894 57.5509 6.30894L56.3016 5.67889L52.226 13.4194L49.0922 13.609L37.3243 7.44064L33.9969 19.6376C33.8643 20.2893 33.5257 20.882 33.0307 21.3285L12.5398 39.2262C12.0215 39.6859 11.6012 40.2449 11.3039 40.8696C11.0066 41.4945 10.8384 42.1723 10.8094 42.8628C10.7805 43.5532 10.8913 44.2422 11.1352 44.8885C11.3792 45.5348 11.7513 46.1252 12.2293 46.6245C12.7074 47.1238 13.2816 47.5218 13.9177 47.7946C14.5539 48.0675 15.2389 48.2098 15.9317 48.2128C16.6247 48.2159 17.3116 48.0798 17.9512 47.8125C18.5907 47.5452 19.17 47.1523 19.6544 46.6572ZM43.4469 20.8749L38.8344 18.492C38.6086 18.3759 38.4384 18.1752 38.3612 17.9338C38.2839 17.6923 38.306 17.4302 38.4224 17.2046L40.4814 13.3138C40.5387 13.2036 40.6174 13.1057 40.7127 13.0258C40.8082 12.946 40.9184 12.8857 41.0373 12.8486C41.1562 12.8114 41.281 12.7981 41.405 12.8093C41.5289 12.8205 41.6493 12.8562 41.7592 12.9141L46.38 15.2943C46.4923 15.3518 46.5919 15.4308 46.6732 15.5269C46.7544 15.623 46.8156 15.7345 46.8532 15.8545C46.8907 15.9746 46.9039 16.101 46.892 16.2263C46.88 16.3516 46.8432 16.4733 46.7836 16.5845L44.733 20.4725C44.6142 20.6945 44.4127 20.861 44.1722 20.9363C43.9314 21.0116 43.6709 20.9896 43.4469 20.8749ZM14.2454 44.7075C13.8989 44.3466 13.6676 43.8912 13.581 43.3988C13.4943 42.9063 13.556 42.399 13.7584 41.941C13.9608 41.483 14.2947 41.0949 14.718 40.8256C15.1412 40.5565 15.6347 40.4183 16.1362 40.4286C16.6376 40.4389 17.1243 40.5973 17.535 40.8836C17.9456 41.17 18.2616 41.5716 18.443 42.0375C18.6244 42.5033 18.663 43.0128 18.5542 43.5012C18.4452 43.9895 18.1934 44.435 17.8309 44.7813C17.5902 45.0112 17.3064 45.1918 16.9959 45.3125C16.6854 45.4332 16.3543 45.4917 16.0213 45.4849C15.6884 45.478 15.3602 45.4059 15.0554 45.2725C14.7507 45.139 14.4754 44.947 14.2454 44.7075Z" fill="#ADACAC"/>
<path d="M33.8654 14.2653C31.7758 11.9288 27.9439 12.8031 25.8566 14.8944C24.3668 16.404 24.7165 19.239 24.7165 19.239C23.0384 19.7291 21.4878 20.5803 20.1731 21.7327C17.9469 23.7209 16.0414 26.0411 14.5239 28.6113C13.7914 29.7647 13.5204 31.1517 13.7651 32.496C14.0097 33.8401 14.7521 35.0429 15.8441 35.864C18.3971 37.925 22.7024 39.577 25.9566 39.148C29.7369 38.6961 33.1268 35.1074 35.6352 32.2534C38.7001 28.7109 39.6532 20.7109 33.8654 14.2653Z" fill="#8CD9FF"/>
<path d="M31.3463 30.4749C31.2513 30.4642 31.1577 30.4432 31.0673 30.4122C28.5549 29.0888 26.4943 27.046 25.1493 24.545C24.9896 24.2315 24.9611 23.8672 25.07 23.5325C25.1789 23.1978 25.4161 22.92 25.7299 22.7603C26.0434 22.6008 26.4077 22.5722 26.7424 22.681C27.0771 22.7899 27.3549 23.0272 27.5146 23.3409C28.5919 25.3169 30.2159 26.9405 32.192 28.0175C32.4866 28.1563 32.7196 28.399 32.8463 28.699C32.9731 28.999 32.9849 29.3352 32.8793 29.6433C32.7737 29.9513 32.5583 30.2098 32.2741 30.3689C31.99 30.528 31.6571 30.5768 31.3393 30.5059L31.3463 30.4749Z" fill="#3F99F2"/>
<path d="M45.4543 29.8948C45.6736 25.9291 44.4085 22.7255 39.7032 19.4751C35.4208 16.5151 32.2408 20.6178 30.4852 25.8655C28.9506 30.4685 29.4218 34.3074 32.8756 35.2579L43.7489 37.0419C44.519 34.7122 45.0896 32.3212 45.4543 29.8948Z" fill="#66BCFF"/>
<path d="M41.3032 29.2426C41.1463 29.1671 40.976 29.1233 40.8022 29.1137C40.6285 29.1043 40.4545 29.1291 40.2902 29.1868C40.126 29.2447 39.9748 29.3344 39.8453 29.4507C39.7158 29.567 39.6105 29.7078 39.5355 29.8648C38.3579 32.302 37.062 34.7341 35.268 35.3288C34.4479 35.5363 33.5846 35.4931 32.7892 35.2054C32.0588 35.9111 31.2776 36.5624 30.4519 37.1537C31.1576 37.4957 31.8996 37.7573 32.6638 37.9334C33.7872 38.218 34.9678 38.183 36.0722 37.832C38.858 36.9287 40.419 34.0896 41.9439 31.0251C42.0196 30.8661 42.0632 30.6938 42.0719 30.5178C42.0806 30.342 42.0545 30.1661 41.9949 30.0004C41.9353 29.8347 41.8436 29.6823 41.7249 29.5523C41.6062 29.4221 41.4629 29.317 41.3032 29.2426Z" fill="#3F99F2"/>
</g>
</g>
<defs>
<clipPath id="clip0_1702_40">
<rect width="60" height="60" fill="white" transform="translate(-0.000244141)"/>
</clipPath>
</defs>
</svg>
