
<svg width="59" height="46" viewBox="0 0 59 46" fill="none" xmlns="http://www.w3.org/2000/svg">
<path d="M25.9407 46.3653C41.0029 46.3653 53.2134 44.7535 53.2134 42.7653C53.2134 40.7771 41.0029 39.1653 25.9407 39.1653C10.8785 39.1653 -1.33203 40.7771 -1.33203 42.7653C-1.33203 44.7535 10.8785 46.3653 25.9407 46.3653Z" fill="#1D2CC2"/>
<path d="M48.7941 47.8923C54.2465 47.8923 58.6668 47.0866 58.6668 46.0923C58.6668 45.0979 54.2465 44.2923 48.7941 44.2923C43.3418 44.2923 38.9214 45.0979 38.9214 46.0923C38.9214 47.0866 43.3418 47.8923 48.7941 47.8923Z" fill="#1D2CC2"/>
<path d="M35.9766 6.7106H22.3403L10.1221 15.8197L12.5766 18.6015C12.6437 18.6822 12.7272 18.7477 12.821 18.7946C12.9148 18.8415 13.0173 18.8688 13.1221 18.8742H35.9766V6.7106Z" fill="#FFF2A6"/>
<path d="M23.7039 7.52885C22.2312 11.8379 18.7403 15.8743 14.213 18.2198C13.8284 18.4145 13.3904 18.4772 12.9666 18.3987C12.5423 18.3196 12.1561 18.1036 11.8675 17.7834L10.1221 15.8198L23.8675 3.81976L23.7039 7.52885Z" fill="#FFF2A6"/>
<path d="M32.5405 44.2926C42.6925 44.2926 50.9223 36.0628 50.9223 25.9108C50.9223 15.7588 42.6925 7.52899 32.5405 7.52899C22.3885 7.52899 14.1587 15.7588 14.1587 25.9108C14.1587 36.0628 22.3885 44.2926 32.5405 44.2926Z" fill="#1D2CC2"/>
<path d="M53.2134 42.7652H-1.33203C0.195241 37.5834 8.15886 31.3652 16.9952 29.1834L47.7043 29.0198L48.1407 16.3107C53.7043 25.3652 53.2134 37.7471 53.2134 42.7652Z" fill="#1D2CC2"/>
<path d="M23.7041 7.52882C24.6314 13.9106 30.4132 18.7652 35.9223 20.6743H36.3041L53.1586 20.8379C53.265 20.8401 53.3703 20.8166 53.4652 20.7692C53.5601 20.7212 53.6419 20.6514 53.7041 20.5652L55.9404 17.7834L43.1223 6.71064L42.0314 4.147H23.7041V7.52882Z" fill="#FFF2A6"/>
<path d="M24.6371 5.47852C24.852 5.69343 24.9726 5.98471 24.9726 6.28852C24.9726 6.59234 24.852 6.88362 24.6371 7.09852L23.8271 7.90852L23.0171 7.09852C22.9107 6.99216 22.8267 6.86616 22.7689 6.72707C22.7111 6.58798 22.6816 6.43907 22.6816 6.28852C22.6816 6.13798 22.7111 5.98907 22.7689 5.85053C22.8262 5.71144 22.9107 5.58489 23.0171 5.47852C23.1235 5.37216 23.25 5.28816 23.3885 5.23034C23.5276 5.17307 23.6765 5.14307 23.8271 5.14307C23.9776 5.14307 24.1265 5.17307 24.2656 5.23034C24.4047 5.28816 24.5307 5.37216 24.6371 5.47852Z" fill="black"/>
<path d="M56.5959 16.8015L44.6504 6.71065C46.4504 4.09247 46.3414 2.45611 43.7777 1.9652C38.3232 0.928836 27.8505 0.81974 23.8687 0.928831L24.0323 5.29247L37.9414 17.6743C38.1148 17.8483 38.3505 17.9465 38.5959 17.947L56.0505 18.2743C56.1519 18.2792 56.2528 18.2617 56.3466 18.2241C56.441 18.1865 56.5261 18.1292 56.5959 18.0561C56.6875 17.9792 56.7612 17.8832 56.8119 17.7752C56.8626 17.6666 56.8888 17.5483 56.8888 17.4288C56.8888 17.3094 56.8626 17.191 56.8119 17.0825C56.7612 16.9745 56.6875 16.8785 56.5959 16.8015Z" fill="#FF78B9"/>
<path d="M38.8683 17.6198C38.9261 17.5554 38.9703 17.4802 38.9986 17.3989C39.027 17.3176 39.039 17.2309 39.0341 17.1447C39.0286 17.0585 39.0068 16.9745 38.9692 16.8965C38.931 16.8191 38.8786 16.7498 38.8137 16.6925L26.2682 5.40162C27.6864 2.67435 28.0137 0.928894 23.8683 0.928894C19.7228 0.928894 20.1592 2.0198 21.0864 5.40162L9.2501 15.1107C9.19283 15.1571 9.14536 15.2149 9.10991 15.2798C9.075 15.3447 9.05319 15.4156 9.04556 15.4893C9.03792 15.5629 9.04446 15.6371 9.06573 15.7074C9.087 15.7783 9.12191 15.8443 9.16827 15.9016C9.21463 15.9589 9.27245 16.0064 9.33736 16.0418C9.40227 16.0767 9.47316 16.0985 9.5468 16.1062C9.62043 16.1138 9.69463 16.1073 9.76499 16.086C9.8359 16.0647 9.90191 16.0298 9.95918 15.9834L23.3773 5.29253C23.4673 5.2118 23.5841 5.16762 23.7046 5.16762C23.8252 5.16762 23.9419 5.2118 24.0319 5.29253L37.941 17.6743C38.0054 17.7322 38.0806 17.7764 38.1619 17.8047C38.2432 17.8331 38.3299 17.8451 38.4161 17.8402C38.5022 17.8353 38.5863 17.8129 38.6643 17.7752C38.7417 17.7371 38.811 17.6847 38.8683 17.6198Z" fill="#D11583"/>
<path d="M52.1762 29.9472L36.7944 35.9472C36.7944 35.9472 38.758 45.5472 38.9217 46.1472L58.6126 45.9835C57.1688 40.3828 55.0049 34.9921 52.1762 29.9472Z" fill="#1D2CC2"/>
<path d="M19.9951 23.7291H19.8861L17.2679 23.4564C16.9728 23.4029 16.7104 23.236 16.537 22.9911C16.3635 22.7467 16.2932 22.4434 16.3406 22.1473C16.3537 21.9984 16.3973 21.8538 16.4688 21.7229C16.5397 21.5914 16.6373 21.4763 16.7551 21.3842C16.8724 21.292 17.0077 21.2254 17.1523 21.1878C17.2968 21.1502 17.4474 21.1425 17.5952 21.1654L20.0497 21.4927C20.1981 21.4993 20.3431 21.5364 20.4768 21.6013C20.6104 21.6656 20.7294 21.7573 20.8264 21.8696C20.9235 21.982 20.9966 22.1129 21.0413 22.2542C21.0855 22.396 21.1008 22.5449 21.0861 22.6927C21.0599 22.9682 20.935 23.2245 20.7348 23.4149C20.5341 23.6058 20.2717 23.7171 19.9951 23.7291Z" fill="white"/>
<path d="M32.1046 24.2196H28.6683C28.4152 24.1574 28.1904 24.0102 28.0323 23.8029C27.8741 23.5956 27.7912 23.3403 27.7972 23.0796C27.8037 22.8189 27.8986 22.568 28.0672 22.3683C28.2357 22.1693 28.467 22.0334 28.7228 21.9832H32.1046C32.2552 21.9832 32.4041 22.0127 32.5432 22.0705C32.6817 22.1278 32.8082 22.2123 32.9146 22.3187C33.021 22.4251 33.1055 22.5516 33.1628 22.6902C33.2206 22.8293 33.2501 22.9782 33.2501 23.1287C33.2359 23.4227 33.1093 23.7004 32.8961 23.9038C32.6828 24.1067 32.3992 24.2202 32.1046 24.2196Z" fill="white"/>
<path d="M25.9409 30.1651H25.8318L20.7045 29.7288C20.4673 29.7021 20.2382 29.6279 20.0298 29.5117C19.8214 29.395 19.6387 29.2384 19.4914 29.0508C19.3442 28.8631 19.2356 28.6477 19.1723 28.4175C19.1091 28.1879 19.0921 27.9473 19.1227 27.7106C19.1423 27.4706 19.211 27.2371 19.325 27.025C19.4396 26.8128 19.5962 26.6268 19.7854 26.4779C19.9753 26.3295 20.1934 26.2221 20.4269 26.1615C20.6598 26.1015 20.9031 26.0906 21.1409 26.1288L26.05 26.5106C26.2911 26.5177 26.5283 26.5728 26.7481 26.6732C26.9674 26.7735 27.1643 26.917 27.3274 27.0953C27.49 27.2731 27.6154 27.4826 27.6956 27.7101C27.7763 27.9375 27.8102 28.1786 27.7954 28.4197C27.7676 28.8926 27.5598 29.3366 27.2151 29.6611C26.8703 29.9857 26.4143 30.1657 25.9409 30.1651Z" fill="#FFC619"/>
<path d="M25.9427 28.8016L20.87 28.3652C20.7494 28.3516 20.6381 28.2943 20.5574 28.2038C20.4772 28.1127 20.4331 27.9954 20.4336 27.8743C20.4592 27.7494 20.5274 27.637 20.6272 27.5574C20.727 27.4778 20.8514 27.4352 20.9791 27.4379C22.4518 27.6561 24.1427 27.7652 25.9972 27.8743C26.1178 27.8879 26.229 27.9452 26.3098 28.0363C26.3899 28.1268 26.4341 28.2441 26.4336 28.3652C26.4101 28.4814 26.3496 28.5867 26.2612 28.6658C26.1728 28.7443 26.061 28.7923 25.9427 28.8016Z" fill="black"/>
<path d="M17.4302 23.6196C18.1535 23.6196 18.7393 23.0333 18.7393 22.3106C18.7393 21.5878 18.1535 21.0015 17.4302 21.0015C16.7075 21.0015 16.1211 21.5878 16.1211 22.3106C16.1211 23.0333 16.7075 23.6196 17.4302 23.6196Z" fill="black"/>
<path d="M28.7217 24.3832C29.4444 24.3832 30.0308 23.7974 30.0308 23.0741C30.0308 22.3514 29.4444 21.765 28.7217 21.765C27.9984 21.765 27.4126 22.3514 27.4126 23.0741C27.4126 23.7974 27.9984 24.3832 28.7217 24.3832Z" fill="black"/>
<path d="M38.8674 45.929L37.5037 39.5472L36.9583 36.7654L35.9765 36.929C36.631 40.2017 36.3037 43.8017 33.6855 46.2017L38.8674 45.929Z" fill="black"/>
<path d="M18.96 35.347C13.3964 35.347 6.46914 39.438 2.86914 44.6743C7.28732 45.6016 14.7601 46.2561 23.4328 46.3652L23.76 45.8743C27.0873 40.0925 24.96 35.347 18.96 35.347Z" fill="#66BCFF"/>
<path d="M37.996 45.0016C37.8891 45.0027 37.7855 44.964 37.7053 44.8936C37.6246 44.8233 37.5727 44.7256 37.5596 44.6198C37.4505 44.0198 37.2324 43.0926 37.0142 42.0562C36.5233 39.5471 35.8687 36.3835 35.5414 34.9653C35.5251 34.908 35.5207 34.848 35.5289 34.7886C35.5366 34.7296 35.5562 34.6729 35.5873 34.6216C35.6178 34.5709 35.6587 34.5262 35.7073 34.4918C35.7553 34.4569 35.8104 34.4324 35.8687 34.4198C35.9915 34.3855 36.1229 34.4007 36.2353 34.4618C36.3471 34.5229 36.4311 34.6255 36.4687 34.7471C36.796 36.1653 37.396 39.3289 37.9415 41.8925C38.1596 42.8744 38.3233 43.8016 38.4324 44.4562C38.4487 44.5135 38.4531 44.5735 38.4449 44.6329C38.4373 44.6918 38.4176 44.7486 38.3865 44.7998C38.356 44.8506 38.3151 44.8953 38.2671 44.9296C38.2185 44.9646 38.1635 44.9891 38.1051 45.0016H37.996Z" fill="black"/>
</svg>
