<svg width="60" height="60" viewBox="0 0 60 60" fill="none" xmlns="http://www.w3.org/2000/svg">
<path fill-rule="evenodd" clip-rule="evenodd" d="M15.6 4.88586C10.2981 4.88586 6 9.18393 6 14.4859V43.2859C6 48.5878 10.2981 52.8859 15.6 52.8859H44.4C49.7019 52.8859 54 48.5878 54 43.2859V14.4859C54 9.18393 49.7019 4.88586 44.4 4.88586H15.6ZM25.2 19.2859C25.2 16.6343 23.0477 14.4859 20.4 14.4859C17.7466 14.4859 15.6 16.6343 15.6 19.2859C15.6 21.9393 17.7466 24.0859 20.4 24.0859C23.0477 24.0859 25.2 21.9393 25.2 19.2859ZM22.8 33.6859L15.6 43.2859H44.4L37.2 26.4859L27.6 38.4859L22.8 33.6859Z" fill="black" fill-opacity="0.6"/>
</svg>
